<svg id="svg" xmlns="http://www.w3.org/2000/svg" xmlns:xlink="http://www.w3.org/1999/xlink" width="400" height="400" viewBox="0, 0, 400,400">
    <g id="svgg">
        <path id="path0" d="M160.000 44.125 C 60.323 70.076,10.749 180.133,56.907 273.000 C 114.658 389.193,285.342 389.193,343.093 273.000 C 404.578 149.295,292.790 9.554,160.000 44.125 M234.661 63.178 C 340.684 90.588,376.541 221.777,299.159 299.159 C 215.741 382.577,75.639 333.979,59.778 216.124 C 46.954 120.834,140.665 38.878,234.661 63.178 M175.000 136.826 C 141.312 144.618,113.206 163.704,94.979 191.163 C 86.178 204.423,86.245 206.503,95.620 211.063 C 99.810 213.101,106.162 218.576,109.735 223.230 C 141.892 265.119,205.931 277.050,256.500 250.573 C 268.603 244.236,296.000 220.383,296.000 216.183 C 296.000 215.317,299.600 212.984,304.000 211.000 C 313.802 206.580,313.893 204.529,304.889 190.964 C 277.151 149.175,221.638 126.037,175.000 136.826 M222.540 156.939 C 250.702 162.906,287.827 190.113,282.187 200.650 C 251.753 257.517,152.171 258.517,119.434 202.284 L 115.867 196.158 123.076 188.179 C 147.270 161.400,186.074 149.211,222.540 156.939 M179.083 162.550 C 146.384 181.071,153.569 231.260,190.176 240.042 C 236.767 251.219,262.580 186.148,220.917 162.550 C 209.850 156.282,190.150 156.282,179.083 162.550 M220.040 182.076 C 223.063 187.723,220.677 193.754,214.841 195.219 C 208.887 196.713,204.000 193.078,204.000 187.155 C 204.000 178.089,215.891 174.323,220.040 182.076 " stroke="none" fill="#000000" fill-rule="evenodd"></path>
    </g>
</svg>