<svg id="svg" version="1.1" xmlns="http://www.w3.org/2000/svg" xmlns:xlink="http://www.w3.org/1999/xlink" width="400" height="400" viewBox="0, 0, 400,400"><g id="svgg"><path id="path0" d="M63.200 153.088 C 62.650 153.187,62.052 153.410,61.871 153.583 C 61.371 154.062,63.517 154.472,64.308 154.049 C 65.790 153.256,68.573 153.131,70.461 153.773 C 72.211 154.368,73.600 154.295,73.600 153.610 C 73.600 152.925,66.182 152.553,63.200 153.088 M189.000 153.070 C 187.140 153.481,186.953 153.627,187.729 154.063 C 188.340 154.406,189.105 154.341,190.800 153.802 C 192.694 153.199,194.244 153.188,196.002 153.763 C 197.100 154.122,198.436 154.306,198.971 154.172 C 199.915 153.935,204.460 155.271,205.487 156.088 C 205.754 156.301,206.204 156.390,206.487 156.285 C 206.780 156.177,206.488 155.892,205.806 155.622 C 205.149 155.361,204.069 154.894,203.406 154.583 C 200.485 153.215,192.252 152.350,189.000 153.070 M121.800 153.600 C 121.650 153.842,122.204 154.000,123.200 154.000 C 124.196 154.000,124.750 153.842,124.600 153.600 C 124.464 153.380,123.834 153.200,123.200 153.200 C 122.566 153.200,121.936 153.380,121.800 153.600 M147.438 153.538 C 147.323 153.725,147.936 153.877,148.800 153.877 C 149.664 153.877,150.277 153.725,150.162 153.538 C 150.047 153.352,149.434 153.200,148.800 153.200 C 148.166 153.200,147.553 153.352,147.438 153.538 M284.597 153.604 C 284.441 153.857,285.025 153.983,286.158 153.940 C 287.153 153.902,287.874 153.720,287.760 153.536 C 287.467 153.061,284.898 153.117,284.597 153.604 M339.857 153.508 C 339.752 153.677,340.368 153.834,341.225 153.856 C 342.082 153.879,342.687 153.740,342.568 153.549 C 342.302 153.118,340.118 153.085,339.857 153.508 M59.300 153.882 C 58.310 154.073,58.111 154.603,58.913 154.911 C 59.195 155.020,59.845 154.769,60.357 154.354 C 61.272 153.614,61.098 153.536,59.300 153.882 M74.946 154.173 C 75.576 154.518,76.476 154.795,76.946 154.788 C 78.129 154.771,77.070 154.183,75.200 153.819 L 73.800 153.546 74.946 154.173 M117.600 154.258 C 115.590 154.949,114.667 155.600,115.696 155.600 C 116.057 155.600,116.464 155.420,116.600 155.200 C 116.736 154.980,117.251 154.800,117.744 154.800 C 118.237 154.800,118.811 154.635,119.020 154.434 C 119.229 154.232,119.850 153.987,120.400 153.888 L 121.400 153.709 120.400 153.674 C 119.850 153.654,118.590 153.917,117.600 154.258 M125.800 153.854 C 126.240 153.977,126.771 154.240,126.980 154.439 C 127.189 154.637,127.763 154.800,128.256 154.800 C 128.749 154.800,129.264 154.980,129.400 155.200 C 129.536 155.420,129.952 155.592,130.324 155.582 C 131.459 155.553,128.292 154.085,126.585 153.850 C 125.713 153.729,125.360 153.732,125.800 153.854 M143.151 154.317 C 142.134 154.692,140.874 155.314,140.351 155.697 L 139.400 156.394 140.600 155.921 C 141.260 155.661,141.971 155.302,142.180 155.124 C 142.389 154.946,143.028 154.800,143.600 154.800 C 144.172 154.800,144.811 154.637,145.020 154.439 C 145.229 154.240,145.760 153.991,146.200 153.885 C 146.850 153.729,146.813 153.687,146.000 153.663 C 145.450 153.647,144.168 153.941,143.151 154.317 M151.400 153.888 C 151.840 153.995,152.470 154.313,152.800 154.594 C 153.149 154.891,153.726 154.985,154.180 154.819 C 155.099 154.483,152.950 153.563,151.440 153.646 C 150.634 153.691,150.632 153.701,151.400 153.888 M184.900 153.882 C 184.405 153.978,184.000 154.212,184.000 154.404 C 184.000 155.135,184.693 155.126,185.825 154.380 C 186.966 153.628,186.769 153.522,184.900 153.882 M279.600 154.365 C 276.804 155.283,275.200 156.041,275.200 156.446 C 275.200 156.620,275.695 156.518,276.300 156.218 C 278.898 154.932,279.549 154.730,280.305 154.970 C 280.821 155.134,281.185 155.016,281.330 154.639 C 281.453 154.317,282.149 153.981,282.877 153.891 C 284.181 153.730,284.183 153.727,283.000 153.686 C 282.340 153.662,280.810 153.968,279.600 154.365 M290.600 154.137 C 291.499 154.854,292.800 155.009,292.800 154.400 C 292.800 154.180,292.575 153.998,292.300 153.995 C 292.025 153.992,291.350 153.879,290.800 153.745 C 289.825 153.506,289.820 153.516,290.600 154.137 M336.500 153.882 C 336.005 153.978,335.600 154.223,335.600 154.428 C 335.600 154.906,336.526 154.910,337.020 154.434 C 337.229 154.232,337.850 153.987,338.400 153.888 L 339.400 153.709 338.400 153.709 C 337.850 153.709,336.995 153.787,336.500 153.882 M344.071 153.875 C 344.440 153.970,344.948 154.297,345.200 154.600 C 345.452 154.904,345.901 155.059,346.198 154.945 C 346.495 154.832,347.112 154.939,347.569 155.183 C 348.026 155.428,348.400 155.471,348.400 155.278 C 348.400 154.762,346.587 154.027,344.887 153.853 C 344.069 153.770,343.702 153.780,344.071 153.875 M293.475 154.835 C 293.706 155.066,294.144 155.297,294.448 155.347 C 294.751 155.397,295.405 155.661,295.900 155.933 C 296.395 156.205,296.800 156.261,296.800 156.057 C 296.800 155.666,296.159 155.344,294.227 154.765 C 293.406 154.520,293.180 154.540,293.475 154.835 M334.000 155.000 C 333.312 155.393,333.203 155.576,333.651 155.586 C 334.009 155.594,334.526 155.330,334.800 155.000 C 335.409 154.266,335.284 154.266,334.000 155.000 M54.885 155.671 C 53.942 156.129,53.249 156.582,53.346 156.679 C 53.443 156.776,54.394 156.401,55.461 155.846 C 57.790 154.634,57.319 154.491,54.885 155.671 M78.033 154.928 C 78.897 155.590,81.200 156.704,81.200 156.461 C 81.200 156.289,80.564 155.845,79.786 155.474 C 78.531 154.875,77.577 154.578,78.033 154.928 M97.000 155.600 C 96.602 156.040,96.439 156.394,96.638 156.387 C 97.103 156.371,98.400 155.391,98.400 155.056 C 98.400 154.548,97.709 154.816,97.000 155.600 M155.771 155.409 C 156.195 155.729,156.640 155.894,156.759 155.774 C 157.010 155.523,155.994 154.809,155.400 154.819 C 155.180 154.822,155.347 155.088,155.771 155.409 M180.500 155.704 C 179.565 156.173,178.800 156.685,178.800 156.840 C 178.800 156.995,179.700 156.673,180.800 156.125 C 182.658 155.199,183.226 154.765,182.500 154.825 C 182.335 154.838,181.435 155.234,180.500 155.704 M314.600 155.600 C 314.202 156.040,314.039 156.394,314.238 156.387 C 314.703 156.371,316.000 155.391,316.000 155.056 C 316.000 154.548,315.309 154.816,314.600 155.600 M131.541 156.272 C 131.761 156.672,132.584 157.600,133.371 158.332 C 134.157 159.065,134.800 159.811,134.800 159.990 C 134.800 160.168,135.064 160.416,135.387 160.540 C 136.246 160.869,133.362 156.998,132.162 156.212 C 131.190 155.575,131.161 155.578,131.541 156.272 M330.967 156.983 C 330.105 157.744,329.580 158.369,329.800 158.372 C 330.295 158.378,332.942 156.008,332.705 155.772 C 332.611 155.677,331.828 156.222,330.967 156.983 M297.440 156.559 C 297.558 156.868,298.003 157.212,298.428 157.323 C 299.455 157.592,299.401 157.424,298.212 156.645 C 297.439 156.138,297.271 156.119,297.440 156.559 M350.384 156.630 C 351.290 157.824,353.200 159.725,353.200 159.433 C 353.200 158.846,351.876 157.211,350.872 156.558 C 349.826 155.877,349.814 155.879,350.384 156.630 M81.600 156.610 C 81.600 156.782,82.365 157.630,83.300 158.494 C 85.879 160.877,86.299 161.132,85.171 159.629 C 84.083 158.180,81.600 156.080,81.600 156.610 M137.400 158.000 C 136.541 158.880,135.985 159.600,136.165 159.600 C 136.458 159.600,139.200 156.819,139.200 156.522 C 139.200 156.225,138.865 156.500,137.400 158.000 M207.200 156.459 C 207.200 156.546,208.386 157.873,209.835 159.408 C 211.284 160.944,212.231 161.795,211.939 161.300 C 211.647 160.805,211.260 160.400,211.080 160.400 C 210.900 160.400,210.846 160.249,210.961 160.063 C 211.075 159.878,210.591 159.194,209.884 158.543 C 208.372 157.148,207.200 156.238,207.200 156.459 M222.267 157.867 C 221.899 158.235,221.929 164.709,222.300 164.938 C 222.465 165.040,222.600 163.431,222.600 161.362 C 222.600 159.293,222.585 157.600,222.567 157.600 C 222.548 157.600,222.413 157.720,222.267 157.867 M260.400 161.024 C 260.400 163.204,260.545 164.357,260.800 164.200 C 261.020 164.064,261.200 162.523,261.200 160.776 C 261.200 158.925,261.033 157.600,260.800 157.600 C 260.564 157.600,260.400 159.008,260.400 161.024 M271.950 158.410 C 270.952 159.155,268.563 162.000,268.935 162.000 C 269.031 162.000,270.148 161.010,271.418 159.800 C 273.701 157.623,273.981 156.893,271.950 158.410 M299.600 157.828 C 299.600 158.208,303.320 162.014,303.508 161.826 C 303.780 161.553,301.987 159.341,300.757 158.431 C 300.121 157.961,299.600 157.690,299.600 157.828 M49.599 159.402 C 49.083 159.951,48.782 160.400,48.930 160.400 C 49.318 160.400,50.899 158.765,50.702 158.568 C 50.611 158.477,50.114 158.852,49.599 159.402 M175.402 159.198 C 175.003 159.639,174.862 160.000,175.089 160.000 C 175.592 160.000,176.590 158.857,176.321 158.588 C 176.215 158.482,175.802 158.756,175.402 159.198 M354.064 161.639 C 354.500 162.540,354.764 163.517,354.652 163.809 C 354.539 164.102,354.707 164.557,355.024 164.820 C 355.341 165.083,355.614 165.681,355.632 166.149 C 355.649 166.617,355.757 166.766,355.871 166.481 C 356.233 165.580,354.250 160.000,353.569 160.000 C 353.406 160.000,353.629 160.737,354.064 161.639 M172.791 162.678 C 171.615 164.534,171.223 165.880,172.000 165.400 C 172.220 165.264,172.400 164.876,172.400 164.538 C 172.400 164.200,172.730 163.446,173.134 162.862 C 174.210 161.307,174.476 160.800,174.215 160.800 C 174.087 160.800,173.446 161.645,172.791 162.678 M47.711 161.700 C 46.972 162.655,46.755 163.200,47.112 163.200 C 47.310 163.200,47.677 162.750,47.927 162.200 C 48.420 161.118,48.328 160.903,47.711 161.700 M85.988 161.978 C 86.633 163.182,87.271 163.392,86.739 162.225 C 86.482 161.661,86.114 161.200,85.922 161.200 C 85.729 161.200,85.759 161.550,85.988 161.978 M212.413 163.420 C 212.420 163.849,212.702 164.560,213.039 165.000 C 213.623 165.761,213.639 165.742,213.375 164.600 C 213.031 163.117,212.395 162.337,212.413 163.420 M86.628 163.955 C 86.507 164.150,86.677 164.532,87.004 164.804 C 87.332 165.076,87.600 165.576,87.600 165.916 C 87.600 166.255,87.691 166.442,87.803 166.331 C 87.914 166.219,87.892 165.559,87.753 164.864 C 87.504 163.619,87.058 163.259,86.628 163.955 M162.813 164.300 C 162.820 164.685,163.112 165.360,163.463 165.800 C 164.084 166.580,164.094 166.575,163.855 165.600 C 163.721 165.050,163.608 164.375,163.605 164.100 C 163.602 163.825,163.420 163.600,163.200 163.600 C 162.980 163.600,162.806 163.915,162.813 164.300 M266.240 166.226 C 265.641 167.450,265.231 168.665,265.329 168.926 C 265.431 169.198,265.626 169.059,265.786 168.600 C 265.940 168.160,266.482 166.945,266.991 165.900 C 267.500 164.855,267.785 164.000,267.623 164.000 C 267.462 164.000,266.839 165.001,266.240 166.226 M305.808 165.600 C 305.963 166.150,306.250 166.771,306.445 166.980 C 306.640 167.189,306.800 167.695,306.800 168.104 C 306.800 168.513,306.973 168.740,307.185 168.609 C 307.594 168.356,307.066 166.819,306.081 165.400 C 305.553 164.640,305.540 164.650,305.808 165.600 M64.945 166.200 C 64.818 166.530,64.474 166.800,64.180 166.800 C 63.885 166.800,63.140 167.263,62.522 167.829 L 61.400 168.858 62.733 167.929 C 63.752 167.218,64.608 167.000,66.372 167.000 C 68.468 167.000,68.639 166.936,68.243 166.300 C 67.693 165.416,65.274 165.342,64.945 166.200 M190.800 165.999 C 190.800 166.218,190.215 166.671,189.500 167.005 C 188.785 167.339,188.560 167.506,189.000 167.377 C 192.293 166.413,195.382 166.968,196.350 168.697 C 196.565 169.080,196.837 169.296,196.956 169.177 C 197.275 168.859,195.258 166.800,194.627 166.800 C 194.329 166.800,193.982 166.530,193.855 166.200 C 193.596 165.525,190.800 165.341,190.800 165.999 M259.618 166.366 C 259.309 166.944,259.303 167.200,259.598 167.200 C 260.083 167.200,260.612 166.078,260.282 165.748 C 260.162 165.629,259.864 165.907,259.618 166.366 M171.117 166.600 C 170.978 167.040,170.743 167.850,170.595 168.400 L 170.326 169.400 170.990 168.494 C 171.355 167.995,171.590 167.185,171.512 166.694 C 171.378 165.845,171.358 165.840,171.117 166.600 M213.014 167.137 C 212.867 167.806,212.927 168.690,213.148 169.102 C 213.384 169.544,213.564 174.200,213.586 180.426 C 213.607 186.242,213.734 191.720,213.869 192.600 C 214.089 194.038,218.000 200.799,218.000 199.741 C 218.000 199.510,217.487 198.612,216.861 197.748 C 214.519 194.515,214.614 195.183,214.400 180.519 C 214.206 167.253,213.816 163.486,213.014 167.137 M45.200 166.967 C 45.200 167.279,45.098 167.864,44.972 168.267 C 44.847 168.670,45.021 168.550,45.358 168.000 C 46.083 166.819,46.146 166.400,45.600 166.400 C 45.380 166.400,45.200 166.655,45.200 166.967 M87.392 167.700 C 86.902 169.681,87.395 190.962,87.965 192.400 C 88.270 193.170,88.695 194.295,88.909 194.900 C 89.122 195.505,89.460 196.000,89.659 196.000 C 89.858 196.000,89.746 195.469,89.410 194.820 C 88.906 193.844,88.799 191.679,88.797 182.320 C 88.792 168.723,88.330 163.913,87.392 167.700 M222.987 167.179 C 223.749 168.412,225.956 168.800,232.211 168.800 C 237.093 168.800,238.382 168.909,238.147 169.300 C 237.815 169.852,239.207 168.862,239.694 168.200 C 240.377 167.270,239.612 167.175,231.810 167.216 C 227.306 167.240,223.408 167.128,223.148 166.968 C 222.839 166.777,222.783 166.849,222.987 167.179 M283.438 167.800 C 282.799 168.350,282.424 168.800,282.606 168.800 C 282.788 168.800,283.273 168.496,283.683 168.125 C 284.093 167.754,285.187 167.326,286.114 167.175 L 287.800 166.900 286.200 166.851 C 285.023 166.814,284.293 167.065,283.438 167.800 M288.003 167.100 C 288.005 167.265,288.477 167.618,289.052 167.885 C 290.074 168.360,290.082 168.353,289.387 167.585 C 288.665 166.788,287.997 166.554,288.003 167.100 M355.452 168.100 C 355.153 169.215,355.129 170.996,355.409 171.276 C 355.849 171.715,355.623 208.010,355.175 208.846 C 354.493 210.121,355.047 210.206,355.868 208.953 C 357.055 207.142,357.193 167.200,356.013 167.200 C 355.837 167.200,355.585 167.605,355.452 168.100 M116.300 168.704 C 114.873 169.588,114.894 170.032,116.342 169.617 C 118.760 168.923,121.200 170.449,121.200 172.654 C 121.200 173.649,121.814 173.953,122.102 173.100 C 122.194 172.825,121.714 171.849,121.035 170.931 C 119.988 169.516,119.409 169.042,117.600 168.124 C 117.490 168.068,116.905 168.329,116.300 168.704 M186.820 169.172 C 186.361 169.816,186.124 170.425,186.293 170.525 C 186.462 170.624,186.892 170.097,187.249 169.353 C 188.047 167.691,187.915 167.635,186.820 169.172 M333.534 169.647 C 332.457 170.670,332.304 170.898,333.131 170.247 C 334.759 168.966,336.768 168.859,337.800 170.000 C 338.198 170.440,338.721 170.799,338.962 170.798 C 339.203 170.797,338.715 170.167,337.878 169.398 C 335.949 167.627,335.643 167.644,333.534 169.647 M141.331 169.421 C 140.184 169.924,138.617 171.550,138.954 171.888 C 139.029 171.962,139.674 171.478,140.387 170.812 C 142.497 168.841,146.800 169.324,146.800 171.531 C 146.800 171.789,146.990 172.000,147.223 172.000 C 148.063 172.000,146.213 169.613,145.061 169.211 C 143.570 168.692,142.912 168.729,141.331 169.421 M290.505 169.954 C 290.986 171.229,291.600 171.626,291.600 170.662 C 291.600 170.366,291.248 169.805,290.817 169.416 C 290.050 168.721,290.044 168.732,290.505 169.954 M163.785 187.600 C 163.785 197.830,163.836 202.015,163.900 196.900 C 163.963 191.785,163.963 183.415,163.900 178.300 C 163.836 173.185,163.785 177.370,163.785 187.600 M307.612 170.129 C 307.605 170.749,307.879 171.536,308.220 171.877 C 308.779 172.437,308.813 172.385,308.566 171.348 C 308.113 169.451,307.626 168.828,307.612 170.129 M196.832 171.700 L 196.800 174.000 195.424 174.000 C 193.660 174.000,193.248 174.630,194.807 174.941 C 197.677 175.515,198.805 173.637,197.414 170.600 C 196.871 169.413,196.865 169.425,196.832 171.700 M264.695 170.000 C 264.570 170.330,264.361 171.140,264.232 171.800 L 263.997 173.000 264.624 171.877 C 264.968 171.259,265.176 170.449,265.087 170.077 C 264.950 169.509,264.887 169.497,264.695 170.000 M71.142 171.800 L 71.000 173.800 69.400 174.000 C 67.835 174.196,67.943 174.784,69.600 175.087 C 71.320 175.401,72.001 174.829,71.972 173.092 C 71.926 170.358,71.312 169.401,71.142 171.800 M113.755 171.012 C 113.390 171.569,113.164 172.098,113.253 172.187 C 113.342 172.276,113.718 171.820,114.089 171.174 C 114.914 169.736,114.669 169.617,113.755 171.012 M237.023 170.889 C 236.249 171.993,236.211 172.654,236.957 172.036 C 237.462 171.616,238.120 170.000,237.785 170.000 C 237.708 170.000,237.365 170.400,237.023 170.889 M281.200 171.324 C 281.200 171.831,280.955 172.582,280.655 172.992 C 280.356 173.402,280.197 174.066,280.302 174.468 C 280.628 175.714,281.080 175.279,281.327 173.482 C 281.456 172.537,281.680 171.457,281.824 171.082 C 281.973 170.692,281.896 170.400,281.643 170.400 C 281.399 170.400,281.200 170.816,281.200 171.324 M45.213 171.254 C 45.191 172.394,47.149 173.293,49.964 173.437 C 52.011 173.541,52.270 173.500,51.121 173.252 C 50.307 173.076,49.372 172.709,49.042 172.435 C 48.712 172.161,47.991 171.996,47.438 172.069 C 46.791 172.153,46.220 171.916,45.830 171.400 C 45.327 170.735,45.223 170.710,45.213 171.254 M60.000 171.918 C 60.000 172.509,56.985 173.313,55.971 172.991 C 55.055 172.700,52.800 173.117,52.800 173.577 C 52.800 174.128,57.034 174.416,58.356 173.955 C 59.577 173.530,60.706 172.172,60.232 171.699 C 60.105 171.571,60.000 171.670,60.000 171.918 M291.414 173.013 C 291.767 174.994,292.238 175.558,292.481 174.289 C 292.593 173.701,292.365 172.950,291.898 172.374 L 291.131 171.426 291.414 173.013 M330.944 172.700 C 330.795 173.305,330.451 174.160,330.179 174.600 C 329.882 175.081,329.810 175.719,329.999 176.200 C 330.348 177.087,330.275 177.226,331.310 173.700 C 331.649 172.545,331.766 171.600,331.571 171.600 C 331.375 171.600,331.093 172.095,330.944 172.700 M171.915 172.625 C 172.331 172.917,173.645 173.254,174.836 173.374 C 176.706 173.564,176.823 173.538,175.700 173.185 C 174.985 172.961,174.400 172.614,174.400 172.414 C 174.400 172.214,173.670 172.060,172.779 172.073 C 171.316 172.093,171.231 172.147,171.915 172.625 M184.998 172.604 C 184.567 173.258,183.238 173.400,181.507 172.977 C 180.207 172.659,178.128 173.097,178.642 173.581 C 180.012 174.872,185.417 174.067,185.910 172.500 C 186.129 171.800,185.479 171.875,184.998 172.604 M339.520 189.354 C 339.593 199.803,339.793 206.753,340.029 206.989 C 340.280 207.240,340.420 201.870,340.427 191.789 C 340.432 183.215,340.532 175.659,340.649 174.997 C 340.796 174.170,340.634 173.531,340.131 172.951 C 339.421 172.132,339.404 172.614,339.520 189.354 M138.284 173.210 C 137.818 173.755,137.674 174.355,137.846 175.040 C 138.169 176.327,138.629 175.840,138.923 173.900 C 139.187 172.151,139.189 172.153,138.284 173.210 M147.284 190.307 L 147.400 208.378 148.304 209.283 L 149.209 210.187 148.392 208.593 C 147.605 207.057,147.578 206.385,147.630 189.875 C 147.659 180.457,147.568 172.634,147.426 172.493 C 147.284 172.351,147.221 180.367,147.284 190.307 M112.549 173.238 C 112.288 173.564,112.228 174.135,112.406 174.600 C 112.682 175.315,112.743 175.328,112.991 174.723 C 113.436 173.636,113.110 172.538,112.549 173.238 M308.233 173.458 C 308.094 173.820,308.255 174.419,308.590 174.789 C 308.926 175.160,309.200 175.884,309.200 176.398 C 309.200 176.913,309.308 177.225,309.441 177.092 C 309.780 176.753,309.194 172.800,308.805 172.800 C 308.629 172.800,308.372 173.096,308.233 173.458 M263.395 174.827 C 263.244 175.722,263.228 176.562,263.360 176.694 C 263.492 176.825,263.600 176.655,263.600 176.316 C 263.600 175.976,263.851 175.489,264.159 175.234 C 264.718 174.770,264.587 173.200,263.989 173.200 C 263.814 173.200,263.547 173.932,263.395 174.827 M63.100 174.687 C 61.836 174.878,61.655 175.436,62.744 175.782 C 63.574 176.046,64.800 175.691,64.800 175.187 C 64.800 175.006,65.115 174.776,65.500 174.676 C 66.376 174.447,64.631 174.455,63.100 174.687 M188.700 174.687 C 187.436 174.878,187.255 175.436,188.344 175.782 C 189.175 176.046,190.400 175.691,190.400 175.185 C 190.400 175.004,190.805 174.778,191.300 174.682 C 192.499 174.451,190.228 174.455,188.700 174.687 M253.923 175.100 C 253.160 175.989,252.695 176.800,252.949 176.800 C 253.057 176.800,253.530 176.260,254.000 175.600 C 254.932 174.291,254.884 173.981,253.923 175.100 M57.800 175.972 C 55.430 176.674,51.200 178.624,51.200 179.015 C 51.200 179.126,51.911 178.853,52.780 178.410 C 54.758 177.401,57.846 176.341,58.503 176.445 C 58.776 176.489,59.630 176.233,60.400 175.878 C 62.293 175.004,60.898 175.054,57.800 175.972 M184.400 175.682 C 183.036 176.080,183.025 176.100,183.959 176.454 C 184.639 176.712,185.104 176.656,185.559 176.261 C 185.911 175.955,186.470 175.605,186.800 175.484 C 187.892 175.082,185.884 175.248,184.400 175.682 M233.143 176.500 C 232.496 177.422,232.436 177.635,232.937 177.233 C 233.650 176.660,234.587 175.200,234.241 175.200 C 234.139 175.200,233.644 175.785,233.143 176.500 M121.782 191.600 C 121.782 200.510,121.835 204.155,121.900 199.700 C 121.964 195.245,121.964 187.955,121.900 183.500 C 121.835 179.045,121.782 182.690,121.782 191.600 M179.700 177.304 C 178.765 177.773,178.000 178.302,178.000 178.480 C 178.000 178.657,178.672 178.441,179.494 178.001 C 180.316 177.560,181.306 177.200,181.694 177.200 C 182.082 177.200,182.400 177.020,182.400 176.800 C 182.400 176.202,181.593 176.353,179.700 177.304 M292.060 182.600 C 292.053 187.352,292.144 188.392,292.499 187.600 C 293.051 186.367,293.037 179.438,292.478 177.800 C 292.163 176.877,292.067 177.985,292.060 182.600 M309.051 178.504 C 308.579 180.265,308.781 186.222,309.339 186.984 C 309.818 187.639,309.903 187.447,310.101 185.261 C 310.495 180.916,309.728 175.979,309.051 178.504 M231.423 178.889 C 230.649 179.993,230.611 180.654,231.357 180.036 C 231.862 179.616,232.520 178.000,232.185 178.000 C 232.108 178.000,231.765 178.400,231.423 178.889 M262.800 182.176 C 262.800 185.623,263.304 186.982,263.751 184.744 C 264.069 183.156,264.072 180.253,263.757 179.433 C 263.183 177.937,262.800 179.035,262.800 182.176 M280.528 181.200 C 280.528 182.630,280.601 183.215,280.689 182.500 C 280.778 181.785,280.778 180.615,280.689 179.900 C 280.601 179.185,280.528 179.770,280.528 181.200 M174.000 181.200 C 173.120 182.080,172.400 183.005,172.400 183.255 C 172.400 183.505,172.862 183.247,173.427 182.682 C 173.992 182.117,174.917 181.192,175.482 180.627 C 176.047 180.062,176.305 179.600,176.055 179.600 C 175.805 179.600,174.880 180.320,174.000 181.200 M250.111 180.100 C 249.244 181.221,249.142 182.266,249.999 181.256 C 250.440 180.736,250.800 180.151,250.800 179.956 C 250.800 179.462,250.567 179.511,250.111 180.100 M48.196 181.204 C 47.566 181.862,47.233 182.400,47.455 182.400 C 47.970 182.400,49.803 180.470,49.539 180.206 C 49.431 180.097,48.826 180.546,48.196 181.204 M229.437 181.800 C 229.076 182.350,228.843 182.800,228.919 182.800 C 228.994 182.800,229.447 182.350,229.925 181.800 C 230.403 181.250,230.637 180.800,230.443 180.800 C 230.250 180.800,229.797 181.250,229.437 181.800 M247.800 183.600 C 247.459 184.260,247.262 184.800,247.362 184.800 C 247.463 184.800,247.930 184.260,248.400 183.600 C 248.870 182.940,249.067 182.400,248.838 182.400 C 248.608 182.400,248.141 182.940,247.800 183.600 M227.543 184.500 C 226.896 185.422,226.836 185.635,227.337 185.233 C 228.050 184.660,228.987 183.200,228.641 183.200 C 228.539 183.200,228.044 183.785,227.543 184.500 M45.180 185.639 C 44.720 186.540,44.442 187.375,44.561 187.494 C 44.680 187.613,44.963 187.224,45.189 186.629 C 45.415 186.033,45.787 185.198,46.014 184.773 C 46.242 184.348,46.335 184.000,46.222 184.000 C 46.109 184.000,45.640 184.737,45.180 185.639 M68.721 184.536 C 68.427 184.830,67.919 185.188,67.593 185.331 C 67.267 185.473,67.945 185.485,69.100 185.357 L 71.200 185.125 71.241 188.062 C 71.284 191.184,71.819 190.204,72.048 186.584 C 72.205 184.114,70.310 182.947,68.721 184.536 M171.200 184.800 C 170.965 185.240,170.915 185.600,171.090 185.600 C 171.265 185.600,171.632 185.240,171.907 184.800 C 172.184 184.357,172.233 184.000,172.017 184.000 C 171.803 184.000,171.435 184.360,171.200 184.800 M194.583 184.428 C 194.437 184.663,193.932 185.024,193.459 185.229 C 192.858 185.491,193.231 185.531,194.700 185.364 L 196.800 185.125 196.834 188.262 C 196.872 191.653,197.250 191.235,197.976 187.000 C 198.420 184.418,195.811 182.441,194.583 184.428 M62.237 188.043 C 60.331 190.164,60.127 190.584,60.800 191.000 C 61.020 191.136,61.200 190.901,61.200 190.478 C 61.200 189.473,62.609 187.705,64.165 186.756 C 64.939 186.284,65.153 186.002,64.737 186.001 C 64.372 186.001,63.247 186.919,62.237 188.043 M170.243 186.633 C 169.915 187.486,169.935 188.198,170.277 187.856 C 170.583 187.551,170.886 186.000,170.640 186.000 C 170.555 186.000,170.376 186.285,170.243 186.633 M225.823 186.889 C 225.049 187.993,225.011 188.654,225.757 188.036 C 226.262 187.616,226.920 186.000,226.585 186.000 C 226.508 186.000,226.165 186.400,225.823 186.889 M187.600 188.200 C 187.083 188.750,186.827 189.194,187.030 189.187 C 187.372 189.176,189.021 187.200,188.688 187.200 C 188.606 187.200,188.117 187.650,187.600 188.200 M43.886 188.600 C 43.530 189.770,43.155 192.705,43.452 192.000 C 43.591 191.670,43.945 191.122,44.240 190.782 C 44.608 190.357,44.674 189.796,44.452 188.982 C 44.172 187.954,44.098 187.904,43.886 188.600 M244.187 188.600 C 244.084 188.930,243.916 189.470,243.813 189.800 C 243.689 190.195,243.897 190.400,244.418 190.400 C 244.854 190.400,245.541 190.606,245.945 190.859 C 246.717 191.341,248.800 191.034,248.800 190.438 C 248.800 190.248,247.811 189.969,246.601 189.817 C 244.587 189.566,244.437 189.478,244.815 188.771 C 245.103 188.234,245.099 188.000,244.802 188.000 C 244.567 188.000,244.291 188.270,244.187 188.600 M263.396 189.150 C 263.508 189.893,263.600 190.748,263.600 191.050 C 263.600 191.814,264.261 191.740,264.567 190.942 C 264.706 190.580,264.568 189.995,264.262 189.642 C 263.955 189.289,263.589 188.730,263.448 188.400 C 263.307 188.070,263.284 188.408,263.396 189.150 M280.486 188.188 C 280.643 188.363,280.584 188.856,280.354 189.286 C 280.037 189.878,280.089 190.235,280.568 190.765 C 280.916 191.149,281.200 191.861,281.200 192.347 C 281.200 193.549,282.688 196.443,283.741 197.291 C 285.763 198.919,290.800 197.376,290.800 195.129 C 290.800 194.917,290.194 195.386,289.453 196.172 C 286.169 199.653,282.218 196.875,281.374 190.491 C 281.220 189.331,280.893 188.267,280.647 188.127 C 280.401 187.987,280.329 188.014,280.486 188.188 M309.246 189.020 C 309.221 189.471,309.006 190.034,308.769 190.271 C 308.532 190.508,308.404 191.219,308.486 191.851 C 308.626 192.931,308.665 192.897,309.141 191.270 C 309.419 190.318,309.567 189.238,309.470 188.870 C 309.334 188.355,309.282 188.390,309.246 189.020 M223.837 189.800 C 223.476 190.350,223.243 190.800,223.319 190.800 C 223.394 190.800,223.847 190.350,224.325 189.800 C 224.803 189.250,225.037 188.800,224.843 188.800 C 224.650 188.800,224.197 189.250,223.837 189.800 M168.996 191.226 C 168.843 192.340,168.826 193.360,168.959 193.492 C 169.092 193.625,169.200 193.313,169.200 192.798 C 169.200 192.284,169.474 191.560,169.810 191.189 C 170.145 190.819,170.306 190.220,170.167 189.858 C 169.710 188.666,169.279 189.169,168.996 191.226 M186.365 190.113 C 186.016 190.381,185.806 190.825,185.898 191.100 C 186.176 191.925,186.694 191.666,186.898 190.600 C 187.003 190.050,187.069 189.606,187.045 189.613 C 187.020 189.620,186.714 189.845,186.365 190.113 M291.938 190.204 C 291.813 190.422,291.587 191.140,291.436 191.800 C 291.285 192.460,291.068 193.315,290.954 193.700 C 290.840 194.085,290.938 194.400,291.173 194.400 C 291.408 194.400,291.600 193.959,291.600 193.420 C 291.600 192.881,291.838 192.296,292.129 192.120 C 292.461 191.919,292.566 191.431,292.412 190.804 C 292.276 190.256,292.063 189.986,291.938 190.204 M249.800 190.662 C 250.240 190.789,250.711 191.069,250.847 191.285 C 250.984 191.501,251.704 191.721,252.447 191.774 C 253.191 191.828,254.115 192.010,254.500 192.179 C 254.885 192.347,255.200 192.330,255.200 192.140 C 255.200 191.725,252.808 190.949,250.600 190.649 C 249.720 190.529,249.360 190.535,249.800 190.662 M255.600 192.230 C 255.600 192.346,256.185 192.712,256.900 193.044 C 258.574 193.822,259.729 194.487,260.657 195.209 C 261.295 195.705,261.287 195.655,260.601 194.852 C 259.605 193.688,255.600 191.588,255.600 192.230 M264.032 192.400 C 264.039 193.409,265.132 195.553,265.153 194.600 C 265.163 194.160,264.914 193.350,264.600 192.800 C 264.273 192.228,264.030 192.057,264.032 192.400 M195.819 193.939 C 195.680 194.378,194.838 195.396,193.947 196.200 C 193.057 197.004,192.407 197.741,192.504 197.837 C 192.765 198.099,195.013 195.958,195.810 194.688 C 196.194 194.076,196.410 193.477,196.291 193.357 C 196.171 193.238,195.959 193.499,195.819 193.939 M307.900 193.431 C 307.735 193.597,307.605 194.198,307.612 194.767 C 307.623 195.673,307.675 195.713,308.039 195.087 C 308.495 194.305,308.381 192.946,307.900 193.431 M186.000 194.239 C 186.000 196.364,189.859 199.224,191.333 198.192 C 192.135 197.630,192.091 197.600,190.470 197.600 C 188.619 197.600,186.800 196.195,186.800 194.765 C 186.800 194.370,186.620 193.936,186.400 193.800 C 186.180 193.664,186.000 193.861,186.000 194.239 M60.400 194.626 C 60.400 196.211,64.450 199.310,65.348 198.412 C 65.575 198.185,66.049 198.000,66.402 198.000 C 66.754 198.000,67.663 197.334,68.422 196.520 L 69.800 195.040 68.286 196.320 C 65.628 198.568,61.200 197.709,61.200 194.946 C 61.200 194.646,61.020 194.400,60.800 194.400 C 60.580 194.400,60.400 194.502,60.400 194.626 M168.849 196.400 C 168.824 196.950,169.016 198.120,169.274 199.000 L 169.744 200.600 170.000 199.400 C 170.154 198.680,170.062 197.960,169.770 197.600 C 169.502 197.270,169.195 196.640,169.088 196.200 C 168.927 195.540,168.885 195.575,168.849 196.400 M265.200 196.002 C 265.200 196.684,267.287 200.800,267.633 200.800 C 267.800 200.800,267.501 199.980,266.968 198.979 C 266.436 197.977,266.000 196.908,266.000 196.602 C 266.000 196.297,265.820 195.936,265.600 195.800 C 265.380 195.664,265.200 195.755,265.200 196.002 M220.400 201.431 L 220.400 206.862 221.569 208.031 C 222.960 209.422,224.389 209.519,226.400 208.359 C 227.170 207.914,227.440 207.677,227.000 207.832 C 225.598 208.324,222.013 208.345,221.715 207.863 C 221.561 207.613,221.487 205.213,221.552 202.530 C 221.670 197.650,221.473 196.000,220.773 196.000 C 220.561 196.000,220.400 198.339,220.400 201.431 M261.029 197.028 C 260.876 197.635,260.792 200.279,260.841 202.902 C 260.903 206.248,260.788 207.760,260.453 207.967 C 259.896 208.311,257.042 208.240,255.600 207.846 C 254.861 207.644,254.966 207.781,256.000 208.369 C 260.107 210.708,262.002 208.649,261.994 201.858 C 261.988 196.945,261.572 194.864,261.029 197.028 M306.400 197.800 C 305.929 198.833,305.624 199.757,305.721 199.854 C 305.818 199.951,306.291 199.194,306.771 198.171 C 307.252 197.149,307.558 196.224,307.450 196.117 C 307.343 196.010,306.871 196.767,306.400 197.800 M90.252 197.043 C 90.400 197.460,90.749 198.070,91.027 198.400 C 91.760 199.270,92.210 202.000,91.621 202.000 C 91.363 202.000,91.250 202.157,91.368 202.349 C 91.487 202.541,91.046 203.261,90.389 203.949 C 88.992 205.411,89.151 205.556,90.808 204.331 C 92.677 202.949,93.052 201.193,91.951 198.987 C 90.982 197.047,89.750 195.638,90.252 197.043 M43.234 197.200 C 43.153 198.860,44.089 201.031,44.459 200.041 C 44.712 199.365,44.654 198.894,44.261 198.441 C 43.955 198.089,43.605 197.530,43.484 197.200 C 43.288 196.667,43.260 196.667,43.234 197.200 M44.412 201.600 C 44.412 201.930,44.587 202.470,44.800 202.800 C 45.145 203.333,45.188 203.333,45.188 202.800 C 45.188 202.470,45.013 201.930,44.800 201.600 C 44.455 201.067,44.412 201.067,44.412 201.600 M170.000 201.349 C 170.000 201.750,171.581 204.800,171.789 204.800 C 171.883 204.800,171.638 204.078,171.242 203.195 C 170.526 201.595,170.000 200.814,170.000 201.349 M215.824 204.032 C 214.737 205.115,214.017 206.000,214.224 206.000 C 214.778 206.000,218.000 202.968,218.000 202.446 C 218.000 201.848,218.067 201.799,215.824 204.032 M268.800 202.798 C 268.800 203.398,273.014 207.600,273.616 207.600 C 273.874 207.600,273.481 207.037,272.742 206.348 C 272.004 205.659,270.815 204.476,270.100 203.719 C 269.385 202.962,268.800 202.548,268.800 202.798 M301.446 204.880 C 300.372 205.950,299.572 206.906,299.670 207.004 C 299.768 207.101,300.727 206.290,301.800 205.200 C 302.873 204.110,303.673 203.155,303.576 203.076 C 303.479 202.998,302.521 203.810,301.446 204.880 M237.100 204.315 C 236.715 204.394,236.400 204.613,236.400 204.802 C 236.400 204.990,235.995 205.202,235.500 205.272 C 235.005 205.342,237.522 205.400,241.092 205.400 C 244.663 205.400,247.152 205.284,246.624 205.143 C 246.095 205.002,245.429 204.741,245.142 204.564 C 244.618 204.240,238.400 204.047,237.100 204.315 M46.729 205.901 C 47.197 206.557,48.079 207.420,48.690 207.817 C 49.912 208.612,49.949 208.695,48.000 206.283 C 46.840 204.846,45.744 204.517,46.729 205.901 M73.800 205.675 C 72.519 207.001,68.912 209.200,68.019 209.200 C 67.569 209.200,67.200 209.380,67.200 209.600 C 67.200 210.437,68.459 209.926,71.634 207.801 C 74.384 205.961,75.024 205.682,75.560 206.094 C 75.959 206.401,75.913 206.250,75.438 205.693 C 75.019 205.202,74.659 204.811,74.638 204.824 C 74.617 204.837,74.240 205.220,73.800 205.675 M248.402 205.198 C 247.665 205.654,247.874 205.823,249.571 206.147 C 250.325 206.291,250.865 206.360,250.771 206.300 C 250.677 206.240,250.236 205.887,249.791 205.516 C 249.253 205.067,248.788 204.960,248.402 205.198 M173.200 206.600 C 173.946 207.370,174.747 208.000,174.978 208.000 C 175.210 208.000,174.692 207.370,173.827 206.600 C 171.803 204.798,171.454 204.798,173.200 206.600 M199.300 205.870 C 198.805 206.215,198.400 206.687,198.400 206.919 C 198.400 207.150,198.845 206.922,199.388 206.411 C 200.215 205.634,200.478 205.567,200.997 205.998 C 201.521 206.433,201.579 206.410,201.366 205.857 C 201.056 205.048,200.473 205.052,199.300 205.870 M232.176 205.806 C 231.444 206.378,231.469 206.398,232.600 206.154 C 234.095 205.833,234.862 205.200,233.756 205.200 C 233.315 205.200,232.604 205.473,232.176 205.806 M87.571 206.513 C 83.803 209.763,83.580 209.885,81.540 209.797 C 79.220 209.698,79.026 210.529,81.324 210.724 C 82.961 210.862,85.149 209.573,87.578 207.038 C 89.126 205.423,89.123 205.174,87.571 206.513 M229.645 206.545 C 229.279 206.986,229.384 207.054,230.197 206.899 C 230.748 206.793,231.200 206.548,231.200 206.353 C 231.200 205.807,230.151 205.936,229.645 206.545 M251.200 206.311 C 251.200 206.528,251.605 206.795,252.100 206.902 C 252.595 207.009,253.315 207.230,253.700 207.391 C 254.094 207.557,254.400 207.512,254.400 207.289 C 254.400 207.072,253.995 206.805,253.500 206.698 C 253.005 206.591,252.285 206.370,251.900 206.209 C 251.506 206.043,251.200 206.088,251.200 206.311 M211.263 208.140 C 209.317 209.670,208.928 209.817,206.923 209.787 C 205.014 209.757,204.816 209.823,205.437 210.276 C 207.154 211.532,210.040 210.421,212.770 207.454 C 214.087 206.022,213.777 206.163,211.263 208.140 M77.200 208.200 C 77.946 208.970,78.698 209.600,78.871 209.600 C 79.044 209.600,78.574 208.970,77.826 208.200 C 77.079 207.430,76.326 206.800,76.155 206.800 C 75.983 206.800,76.454 207.430,77.200 208.200 M202.400 207.468 C 202.400 207.979,203.935 209.398,204.201 209.132 C 204.309 209.025,203.948 208.514,203.398 207.999 C 202.849 207.483,202.400 207.244,202.400 207.468 M298.334 207.469 C 297.968 207.566,297.568 207.906,297.446 208.224 C 297.266 208.695,297.409 208.682,298.212 208.155 C 298.988 207.647,299.611 207.009,299.100 207.246 C 299.045 207.272,298.700 207.372,298.334 207.469 M274.400 207.983 C 274.400 208.197,274.760 208.565,275.200 208.800 C 275.640 209.035,276.000 209.085,276.000 208.910 C 276.000 208.735,275.640 208.368,275.200 208.093 C 274.757 207.816,274.400 207.767,274.400 207.983 M195.612 208.384 C 195.288 208.589,195.121 208.854,195.241 208.974 C 195.360 209.094,195.805 208.929,196.229 208.609 C 197.073 207.971,196.560 207.785,195.612 208.384 M162.400 209.400 C 162.122 209.735,162.079 210.000,162.302 210.000 C 162.522 210.000,162.926 209.730,163.200 209.400 C 163.478 209.065,163.521 208.800,163.298 208.800 C 163.078 208.800,162.674 209.070,162.400 209.400 M236.400 209.200 C 235.850 209.376,234.870 209.538,234.223 209.560 C 232.357 209.623,226.824 211.491,224.200 212.943 C 217.872 216.444,218.825 220.267,225.920 219.845 C 242.160 218.879,243.200 219.006,243.200 221.960 C 243.200 224.404,241.823 229.133,239.010 236.353 C 237.347 240.619,237.476 241.920,239.648 242.820 C 246.765 245.768,258.984 218.736,253.618 211.914 C 251.783 209.581,240.677 207.830,236.400 209.200 M51.600 209.600 C 51.930 209.813,52.470 209.988,52.800 209.988 C 53.333 209.988,53.333 209.945,52.800 209.600 C 52.470 209.387,51.930 209.212,51.600 209.212 C 51.067 209.212,51.067 209.255,51.600 209.600 M177.400 209.479 C 177.955 210.016,181.908 211.210,182.946 211.154 C 183.755 211.110,183.758 211.097,183.000 210.911 C 182.560 210.802,181.947 210.508,181.639 210.257 C 181.330 210.006,180.610 209.776,180.039 209.746 C 179.467 209.717,178.550 209.557,178.000 209.392 C 177.352 209.197,177.141 209.228,177.400 209.479 M192.562 209.725 C 192.213 209.921,191.404 210.003,190.764 209.909 C 190.124 209.815,189.600 209.882,189.600 210.058 C 189.600 210.233,189.015 210.546,188.300 210.752 C 187.149 211.085,187.115 211.132,188.001 211.164 C 188.973 211.199,194.314 209.820,194.699 209.434 C 195.027 209.107,193.230 209.351,192.562 209.725 M276.800 209.600 C 277.130 209.813,277.670 209.988,278.000 209.988 C 278.533 209.988,278.533 209.945,278.000 209.600 C 277.670 209.387,277.130 209.212,276.800 209.212 C 276.267 209.212,276.267 209.255,276.800 209.600 M54.400 209.998 C 53.275 210.305,55.717 211.244,57.400 211.151 L 58.200 211.107 57.400 210.912 C 56.960 210.805,56.330 210.494,56.000 210.221 C 55.642 209.925,54.997 209.835,54.400 209.998 M63.617 210.180 C 63.356 210.495,62.750 210.828,62.271 210.922 C 61.489 211.074,61.502 211.096,62.400 211.143 C 63.390 211.195,66.602 210.448,66.338 210.227 C 65.732 209.722,64.021 209.692,63.617 210.180 M279.420 209.988 C 278.508 210.314,280.634 211.228,282.160 211.166 C 282.803 211.139,282.727 211.050,281.834 210.783 C 281.193 210.591,280.563 210.271,280.434 210.072 C 280.305 209.872,279.849 209.835,279.420 209.988 M128.112 210.295 C 129.164 210.377,130.784 210.376,131.712 210.292 C 132.640 210.208,131.780 210.141,129.800 210.142 C 127.820 210.143,127.060 210.212,128.112 210.295 M290.800 210.671 C 289.800 211.264,289.800 211.264,291.150 211.032 C 291.893 210.904,292.657 210.800,292.850 210.800 C 293.043 210.800,293.200 210.620,293.200 210.400 C 293.200 209.834,291.979 209.972,290.800 210.671 M320.300 210.293 C 321.235 210.377,322.765 210.377,323.700 210.293 C 324.635 210.209,323.870 210.140,322.000 210.140 C 320.130 210.140,319.365 210.209,320.300 210.293 M345.900 210.295 C 347.055 210.376,348.945 210.376,350.100 210.295 C 351.255 210.214,350.310 210.148,348.000 210.148 C 345.690 210.148,344.745 210.214,345.900 210.295 M283.900 210.707 C 283.515 210.790,283.200 211.025,283.200 211.229 C 283.200 211.711,289.082 211.714,289.380 211.233 C 289.799 210.555,286.195 210.209,283.900 210.707 M88.355 212.600 C 86.001 213.880,86.044 216.599,88.456 218.852 C 99.851 229.497,120.027 240.658,135.400 244.820 C 143.755 247.082,146.583 247.667,154.800 248.831 C 159.448 249.490,178.412 249.758,182.400 249.222 C 191.975 247.934,193.842 247.598,200.800 245.909 C 219.432 241.387,240.400 230.486,240.400 225.321 C 240.400 223.651,239.319 222.134,237.651 221.467 C 235.804 220.728,235.563 220.781,229.151 223.310 C 217.581 227.875,202.323 231.647,190.000 232.988 C 156.727 236.612,122.341 229.619,92.800 213.221 C 90.338 211.855,89.851 211.787,88.355 212.600 " stroke="none" fill="#fc9d0b" fill-rule="evenodd"></path><path id="path1" d="M60.600 154.164 C 59.940 154.692,59.266 155.041,59.102 154.939 C 58.427 154.522,57.200 154.475,57.200 154.866 C 57.200 155.097,56.921 155.178,56.579 155.047 C 56.174 154.892,56.058 154.970,56.245 155.273 C 56.438 155.585,56.307 155.650,55.845 155.473 C 55.467 155.328,55.257 155.368,55.377 155.563 C 55.658 156.017,54.462 156.485,53.902 156.139 C 53.636 155.975,53.595 156.069,53.794 156.390 C 54.004 156.731,53.927 156.842,53.564 156.721 C 53.262 156.621,52.684 156.912,52.278 157.369 C 51.871 157.826,51.677 157.930,51.846 157.600 C 52.111 157.083,52.059 157.076,51.477 157.549 C 51.105 157.851,50.800 158.256,50.800 158.449 C 50.800 158.868,49.620 160.032,48.596 160.624 C 48.193 160.857,47.835 161.423,47.801 161.882 C 47.767 162.342,47.446 163.011,47.087 163.370 C 46.728 163.729,46.536 164.288,46.660 164.612 C 46.799 164.973,46.647 165.200,46.266 165.200 C 45.857 165.200,45.700 165.478,45.803 166.018 C 46.002 167.047,45.587 168.227,45.231 167.650 C 45.089 167.420,44.933 168.136,44.885 169.240 C 44.833 170.432,44.953 171.153,45.179 171.013 C 45.522 170.801,46.495 172.067,46.286 172.454 C 46.239 172.542,46.371 172.475,46.580 172.307 C 47.174 171.828,48.344 171.945,49.315 172.581 C 50.298 173.225,51.571 173.302,56.000 172.983 C 60.425 172.665,60.331 172.686,60.087 172.049 C 59.943 171.675,60.031 171.572,60.333 171.759 C 60.653 171.956,60.756 171.753,60.658 171.124 C 60.558 170.487,60.907 169.828,61.783 169.000 C 62.481 168.340,62.762 167.980,62.407 168.200 C 62.051 168.420,62.196 168.185,62.728 167.679 C 63.379 167.058,64.038 166.809,64.747 166.917 C 65.326 167.004,65.565 166.999,65.278 166.904 C 64.328 166.592,65.039 165.802,66.389 165.670 C 67.888 165.524,68.824 166.406,67.685 166.892 C 67.271 167.069,67.507 167.124,68.282 167.030 C 69.124 166.929,69.743 167.095,70.082 167.514 C 70.518 168.052,70.505 168.105,70.000 167.846 C 69.670 167.677,69.773 167.870,70.228 168.275 C 73.493 171.178,71.995 176.850,68.535 174.687 C 67.822 174.241,65.252 174.691,64.560 175.383 C 63.850 176.093,63.419 176.145,62.468 175.636 C 62.016 175.395,61.322 175.483,60.394 175.899 C 58.812 176.609,58.993 176.589,57.400 176.239 C 56.568 176.057,56.378 176.094,56.779 176.360 C 57.506 176.843,55.525 177.448,54.761 176.976 C 54.430 176.772,54.380 176.845,54.604 177.206 C 54.844 177.594,54.747 177.665,54.245 177.473 C 53.782 177.295,53.652 177.360,53.845 177.673 C 54.038 177.985,53.907 178.050,53.445 177.873 C 52.982 177.695,52.852 177.760,53.045 178.073 C 53.238 178.385,53.107 178.450,52.645 178.273 C 52.237 178.116,52.058 178.170,52.203 178.405 C 52.420 178.757,52.139 178.873,51.336 178.764 C 51.191 178.744,50.910 179.018,50.711 179.373 C 50.513 179.727,50.182 179.912,49.975 179.785 C 49.769 179.657,49.600 179.802,49.600 180.107 C 49.600 180.780,47.941 182.400,47.251 182.400 C 46.977 182.400,46.857 182.569,46.985 182.775 C 47.112 182.982,46.927 183.313,46.573 183.511 C 46.218 183.710,45.944 183.991,45.964 184.136 C 46.073 184.939,45.957 185.220,45.605 185.003 C 45.370 184.858,45.316 185.037,45.473 185.445 C 45.641 185.883,45.580 186.035,45.305 185.865 C 45.032 185.696,44.951 185.889,45.083 186.395 C 45.211 186.886,45.058 187.280,44.682 187.424 C 44.203 187.608,44.149 187.925,44.430 188.904 C 44.710 189.881,44.637 190.317,44.094 190.917 C 43.094 192.022,43.106 197.191,44.111 198.302 C 44.684 198.934,44.742 199.300,44.411 200.170 C 43.898 201.521,43.897 201.711,44.405 201.397 C 44.630 201.258,44.919 201.695,45.056 202.382 C 45.192 203.061,45.463 203.715,45.658 203.836 C 45.853 203.957,45.909 204.223,45.783 204.428 C 45.656 204.632,45.745 204.800,45.980 204.800 C 46.756 204.800,48.888 207.134,48.575 207.640 C 48.391 207.938,48.445 208.020,48.714 207.853 C 48.954 207.705,49.336 207.902,49.563 208.292 C 49.790 208.681,49.981 208.843,49.988 208.651 C 49.995 208.459,50.225 208.479,50.500 208.696 C 50.775 208.912,51.502 209.210,52.116 209.357 C 52.730 209.503,53.120 209.805,52.983 210.028 C 52.757 210.394,54.708 210.139,55.168 209.743 C 55.260 209.663,55.684 209.914,56.110 210.299 C 57.209 211.294,62.385 211.299,63.483 210.306 C 64.107 209.741,64.504 209.686,65.622 210.006 C 67.326 210.495,67.200 210.512,67.200 209.800 C 67.200 209.431,67.575 209.200,68.176 209.200 C 68.713 209.200,69.272 209.008,69.417 208.773 C 69.562 208.538,69.942 208.446,70.261 208.568 C 70.585 208.693,70.734 208.616,70.597 208.395 C 70.373 208.033,70.923 207.822,71.730 207.963 C 71.911 207.994,71.945 207.835,71.806 207.610 C 71.574 207.235,72.113 207.021,72.930 207.163 C 73.111 207.194,73.162 207.062,73.043 206.870 C 72.524 206.029,74.688 204.813,75.368 205.564 C 75.716 205.950,75.881 206.385,75.734 206.532 C 75.587 206.680,75.786 206.800,76.176 206.800 C 76.621 206.800,76.805 207.009,76.670 207.362 C 76.551 207.672,76.757 208.199,77.127 208.534 C 77.786 209.130,77.964 209.200,78.824 209.200 C 79.057 209.200,79.148 209.361,79.026 209.558 C 78.904 209.755,79.658 209.867,80.702 209.807 C 81.746 209.747,82.918 209.863,83.306 210.066 C 83.794 210.321,83.979 210.291,83.906 209.967 C 83.848 209.710,84.050 209.409,84.356 209.298 C 84.728 209.163,84.807 209.265,84.594 209.610 C 84.390 209.939,84.436 210.025,84.721 209.849 C 84.965 209.698,85.093 209.355,85.005 209.087 C 84.916 208.819,85.779 207.891,86.922 207.025 C 88.065 206.158,88.733 205.798,88.407 206.225 C 87.822 206.990,87.826 206.990,88.709 206.236 C 89.202 205.815,89.522 205.389,89.421 205.288 C 89.216 205.083,90.202 204.000,90.595 204.000 C 90.734 204.000,90.719 204.208,90.562 204.462 C 90.389 204.741,90.452 204.815,90.721 204.649 C 90.965 204.498,91.071 204.128,90.955 203.828 C 90.840 203.527,90.941 203.160,91.179 203.013 C 91.418 202.865,91.509 202.577,91.383 202.372 C 91.256 202.168,91.335 202.000,91.558 202.000 C 91.782 202.000,91.926 201.213,91.881 200.236 C 91.837 199.266,91.632 198.501,91.427 198.536 C 91.221 198.571,90.786 198.061,90.458 197.403 C 90.131 196.745,89.625 195.967,89.332 195.675 C 89.040 195.383,88.698 194.662,88.572 194.072 C 88.445 193.482,88.079 192.370,87.757 191.600 C 87.165 190.182,87.100 169.800,87.675 165.800 C 87.801 164.920,87.819 164.433,87.713 164.717 C 87.567 165.112,87.391 165.124,86.966 164.771 C 86.659 164.517,86.537 164.105,86.693 163.855 C 87.119 163.174,87.178 162.366,86.785 162.609 C 86.595 162.727,86.245 162.457,86.006 162.011 C 85.767 161.565,85.690 161.200,85.835 161.200 C 85.980 161.200,85.897 160.958,85.652 160.663 C 85.407 160.368,85.340 159.979,85.503 159.799 C 85.667 159.619,85.592 159.591,85.337 159.736 C 85.079 159.884,84.058 159.207,83.030 158.208 C 82.015 157.222,81.053 156.394,80.893 156.368 C 80.732 156.341,80.643 156.164,80.695 155.974 C 80.748 155.784,80.493 155.743,80.130 155.882 C 79.651 156.066,79.559 155.990,79.796 155.606 C 80.004 155.270,79.968 155.172,79.698 155.339 C 79.124 155.694,77.945 155.212,78.236 154.742 C 78.371 154.523,78.038 154.476,77.434 154.627 C 76.101 154.962,74.763 154.518,75.581 154.012 C 75.939 153.790,75.617 153.715,74.682 153.802 C 73.880 153.877,73.043 154.050,72.820 154.187 C 72.598 154.325,71.558 154.145,70.508 153.789 C 68.574 153.131,65.806 153.248,64.308 154.049 C 63.502 154.480,61.501 154.084,61.826 153.557 C 62.176 152.991,61.887 153.134,60.600 154.164 M192.342 153.391 C 192.237 153.496,191.802 153.648,191.376 153.729 C 190.949 153.809,190.122 154.009,189.537 154.172 C 188.951 154.335,188.131 154.284,187.710 154.059 C 187.130 153.748,186.667 153.831,185.797 154.402 C 185.166 154.816,184.459 155.035,184.225 154.888 C 183.446 154.401,182.858 154.473,182.623 155.085 C 182.481 155.454,182.085 155.611,181.609 155.486 C 181.147 155.366,180.863 155.470,180.914 155.741 C 180.961 155.993,180.606 156.187,180.124 156.171 C 179.642 156.155,179.258 156.245,179.271 156.371 C 179.349 157.124,179.136 157.319,178.800 156.800 C 178.463 156.279,178.411 156.287,178.406 156.857 C 178.403 157.219,178.121 157.622,177.779 157.753 C 177.378 157.907,177.258 157.829,177.441 157.534 C 177.620 157.244,177.546 157.186,177.237 157.377 C 176.970 157.542,176.585 158.113,176.382 158.646 C 176.180 159.179,175.536 159.796,174.952 160.018 C 174.367 160.241,173.998 160.531,174.130 160.664 C 174.532 161.065,173.593 162.443,173.118 162.149 C 172.857 161.988,172.789 162.059,172.952 162.322 C 173.103 162.567,173.054 163.090,172.843 163.484 C 172.631 163.878,172.357 164.526,172.232 164.925 C 172.108 165.324,171.817 165.534,171.587 165.392 C 171.314 165.223,171.258 165.492,171.427 166.166 C 171.734 167.389,171.315 168.834,170.865 168.105 C 170.704 167.845,170.538 168.434,170.495 169.413 C 170.452 170.393,170.549 171.174,170.709 171.150 C 171.494 171.030,171.737 171.253,171.200 171.600 C 170.567 172.009,171.501 172.178,173.500 172.016 C 173.995 171.976,174.400 172.127,174.400 172.353 C 174.400 172.920,177.047 173.599,178.120 173.307 C 178.901 173.095,179.844 173.071,183.600 173.172 C 184.150 173.186,184.800 172.929,185.044 172.599 C 185.288 172.270,185.669 172.000,185.889 172.000 C 186.110 172.000,186.276 171.505,186.258 170.900 C 186.239 170.253,186.420 169.839,186.698 169.895 C 186.958 169.948,187.079 169.751,186.967 169.459 C 186.855 169.167,187.087 168.674,187.482 168.364 C 188.151 167.838,188.160 167.854,187.607 168.600 C 187.021 169.390,187.025 169.391,187.897 168.647 C 188.383 168.232,188.696 167.755,188.591 167.586 C 188.486 167.416,188.941 167.090,189.600 166.860 C 190.260 166.630,190.800 166.241,190.800 165.997 C 190.800 165.402,193.690 165.655,193.891 166.266 C 193.975 166.523,193.809 166.810,193.522 166.904 C 193.235 166.999,193.473 167.005,194.051 166.917 C 195.200 166.743,196.580 167.784,196.142 168.494 C 195.991 168.739,196.063 168.808,196.311 168.655 C 196.549 168.508,196.858 168.570,196.996 168.793 C 197.134 169.017,197.012 169.203,196.724 169.206 C 196.335 169.211,196.322 169.290,196.675 169.514 C 198.204 170.486,198.435 174.254,197.000 174.800 C 195.804 175.255,193.503 174.880,193.868 174.289 C 194.029 174.029,193.923 174.000,193.580 174.212 C 193.281 174.397,192.520 174.605,191.890 174.674 C 191.259 174.743,190.459 175.084,190.112 175.431 C 189.713 175.829,189.171 175.964,188.640 175.797 C 187.322 175.380,186.369 175.504,185.611 176.190 C 185.063 176.686,184.678 176.734,183.830 176.411 C 182.449 175.886,182.400 175.891,182.400 176.550 C 182.400 177.151,180.174 177.755,179.497 177.336 C 179.258 177.189,179.194 177.267,179.349 177.518 C 179.500 177.761,179.272 178.147,178.843 178.377 C 178.273 178.682,178.011 178.661,177.864 178.297 C 177.748 178.010,177.650 178.104,177.632 178.518 C 177.612 178.968,177.342 179.191,176.909 179.118 C 176.527 179.053,176.214 179.253,176.209 179.567 C 176.204 179.878,175.950 180.217,175.644 180.319 C 175.274 180.442,175.194 180.333,175.406 179.990 C 175.610 179.661,175.564 179.575,175.279 179.751 C 175.035 179.902,174.923 180.256,175.032 180.538 C 175.274 181.169,173.801 182.572,173.253 182.233 C 173.034 182.098,172.725 182.198,172.566 182.455 C 172.375 182.765,172.451 182.816,172.790 182.606 C 173.133 182.394,173.242 182.474,173.119 182.844 C 173.017 183.150,172.723 183.423,172.467 183.450 C 171.493 183.554,171.414 183.621,171.901 183.930 C 172.280 184.171,172.207 184.456,171.601 185.107 C 171.160 185.580,170.730 186.379,170.645 186.883 C 170.560 187.387,170.286 187.754,170.037 187.697 C 169.574 187.592,169.694 189.180,170.211 190.019 C 170.358 190.256,170.162 190.800,169.776 191.227 C 168.817 192.286,168.734 196.505,169.654 197.425 C 170.151 197.923,170.225 198.402,169.975 199.510 C 169.722 200.633,169.791 201.051,170.290 201.417 C 170.675 201.698,170.826 202.155,170.670 202.563 C 170.495 203.019,170.561 203.148,170.873 202.955 C 171.185 202.762,171.250 202.893,171.073 203.355 C 170.916 203.763,170.970 203.942,171.205 203.797 C 171.555 203.581,171.767 204.089,171.655 204.876 C 171.634 205.027,171.973 205.264,172.408 205.403 C 172.844 205.541,173.200 205.832,173.200 206.051 C 173.200 206.269,172.975 206.318,172.700 206.159 C 172.425 206.001,172.636 206.350,173.170 206.935 C 174.191 208.057,174.852 208.427,174.000 207.400 C 173.722 207.065,173.679 206.800,173.902 206.800 C 174.464 206.800,175.248 207.819,174.930 208.137 C 174.785 208.282,175.062 208.400,175.546 208.400 C 176.029 208.400,176.524 208.659,176.646 208.975 C 176.767 209.291,177.110 209.456,177.409 209.341 C 177.707 209.227,178.277 209.323,178.676 209.554 C 179.180 209.848,179.228 209.979,178.833 209.988 C 178.522 209.995,178.362 210.095,178.478 210.211 C 178.594 210.327,179.189 210.232,179.800 210.000 C 180.680 209.666,181.056 209.708,181.601 210.201 C 182.972 211.442,189.600 211.273,189.600 209.997 C 189.600 209.793,189.825 209.694,190.100 209.778 C 191.550 210.221,193.362 210.374,192.800 210.006 C 192.470 209.789,192.380 209.596,192.600 209.576 C 193.972 209.453,194.940 209.117,195.482 208.575 C 195.824 208.233,196.332 208.042,196.612 208.149 C 196.897 208.258,197.227 207.960,197.361 207.472 C 197.542 206.810,197.683 206.729,197.944 207.134 C 198.213 207.551,198.331 207.507,198.481 206.934 C 198.865 205.473,201.147 204.778,201.341 206.063 C 201.468 206.901,202.023 207.633,202.369 207.419 C 202.726 207.199,204.338 208.789,204.378 209.400 C 204.461 210.682,209.014 209.797,211.400 208.035 C 212.720 207.061,213.533 206.609,213.207 207.032 C 212.623 207.789,212.627 207.789,213.509 207.036 C 214.002 206.615,214.313 206.180,214.202 206.068 C 213.937 205.804,215.207 204.400,215.711 204.400 C 215.924 204.400,215.851 204.715,215.549 205.100 C 215.052 205.733,215.066 205.748,215.696 205.255 C 216.078 204.955,216.297 204.556,216.181 204.369 C 215.954 204.002,217.631 202.144,218.060 202.287 C 218.203 202.334,218.303 201.761,218.281 201.012 C 218.260 200.239,218.075 199.754,217.853 199.891 C 217.625 200.031,217.573 199.847,217.727 199.445 C 217.884 199.037,217.830 198.858,217.595 199.003 C 217.240 199.223,217.027 198.694,217.153 197.900 C 217.179 197.735,216.975 197.645,216.700 197.700 C 216.425 197.755,216.198 197.498,216.195 197.128 C 216.192 196.759,216.028 196.309,215.831 196.128 C 215.623 195.938,215.596 196.053,215.766 196.400 C 215.927 196.730,215.772 196.645,215.421 196.211 C 215.070 195.778,214.870 195.195,214.977 194.916 C 215.084 194.638,214.964 194.452,214.710 194.505 C 213.900 194.672,213.659 191.653,213.604 180.627 C 213.572 174.288,213.385 169.546,213.149 169.104 C 212.630 168.135,213.093 165.890,213.733 166.273 C 214.005 166.437,213.977 166.278,213.666 165.894 C 213.372 165.532,213.250 165.043,213.395 164.808 C 213.541 164.573,213.421 164.430,213.130 164.490 C 212.799 164.559,212.593 164.201,212.581 163.538 C 212.570 162.955,212.347 162.218,212.084 161.902 C 211.822 161.585,211.740 161.179,211.903 160.999 C 212.067 160.819,211.995 160.789,211.745 160.932 C 211.289 161.192,208.113 157.686,208.295 157.123 C 208.348 156.961,208.123 156.932,207.795 157.057 C 207.468 157.183,207.200 157.099,207.200 156.871 C 207.200 156.642,206.795 156.394,206.300 156.318 C 205.805 156.243,205.449 155.947,205.510 155.661 C 205.570 155.375,205.434 155.256,205.206 155.396 C 204.979 155.537,204.411 155.530,203.944 155.382 C 203.390 155.206,203.256 155.013,203.558 154.826 C 203.813 154.668,203.432 154.508,202.711 154.471 C 198.487 154.250,196.852 154.062,195.603 153.655 C 194.149 153.182,192.671 153.062,192.342 153.391 M287.760 153.536 C 287.932 153.813,286.832 153.926,284.446 153.876 C 282.482 153.834,281.029 153.895,281.217 154.011 C 282.088 154.549,280.912 155.176,279.690 154.826 C 278.770 154.562,278.445 154.591,278.510 154.931 C 278.561 155.198,278.138 155.394,277.530 155.387 C 276.941 155.379,276.566 155.545,276.696 155.755 C 276.829 155.971,276.645 156.026,276.270 155.882 C 275.863 155.726,275.646 155.815,275.705 156.114 C 275.757 156.381,275.575 156.555,275.300 156.500 C 275.025 156.445,274.800 156.580,274.800 156.800 C 274.800 157.020,274.440 157.200,274.000 157.200 C 273.560 157.200,273.245 157.403,273.300 157.650 C 273.355 157.898,273.150 158.191,272.844 158.302 C 272.472 158.437,272.393 158.335,272.606 157.990 C 272.816 157.651,272.765 157.575,272.455 157.766 C 272.198 157.925,272.096 158.232,272.230 158.448 C 272.526 158.927,270.483 160.899,270.000 160.600 C 269.810 160.483,269.525 160.598,269.366 160.855 C 269.185 161.148,269.250 161.216,269.538 161.038 C 269.792 160.881,270.000 160.931,270.000 161.149 C 270.000 161.368,269.637 161.661,269.194 161.802 C 268.751 161.943,268.483 162.210,268.598 162.397 C 268.713 162.583,268.491 163.052,268.104 163.439 C 267.717 163.826,267.400 164.246,267.400 164.371 C 267.400 164.497,267.271 164.557,267.114 164.505 C 266.957 164.452,266.943 164.707,267.082 165.070 C 267.232 165.460,267.173 165.630,266.938 165.486 C 266.718 165.350,266.554 165.633,266.570 166.120 C 266.587 166.604,266.414 166.968,266.186 166.929 C 265.959 166.890,265.779 167.340,265.786 167.929 C 265.795 168.612,265.608 168.960,265.270 168.890 C 264.906 168.814,264.820 169.034,264.997 169.590 C 265.353 170.712,264.840 172.308,264.366 171.553 C 264.151 171.211,264.094 171.600,264.216 172.574 C 264.325 173.439,264.501 174.235,264.608 174.341 C 264.714 174.448,264.495 174.874,264.120 175.289 C 263.411 176.072,263.325 177.600,263.816 180.714 C 264.160 182.893,263.709 186.115,263.113 185.746 C 262.832 185.573,262.793 185.665,263.002 186.004 C 263.182 186.294,263.369 187.050,263.419 187.685 C 263.469 188.319,263.816 189.176,264.191 189.590 C 264.697 190.149,264.769 190.527,264.471 191.059 C 264.185 191.571,264.241 192.105,264.668 192.931 C 265.002 193.577,265.159 194.509,265.024 195.046 C 264.859 195.704,264.943 195.973,265.292 195.903 C 265.604 195.840,265.795 196.213,265.786 196.871 C 265.779 197.460,265.959 197.910,266.186 197.871 C 266.414 197.832,266.587 198.196,266.570 198.680 C 266.554 199.167,266.718 199.450,266.938 199.314 C 267.173 199.170,267.232 199.340,267.082 199.730 C 266.926 200.137,267.015 200.354,267.314 200.295 C 267.581 200.243,267.755 200.425,267.700 200.700 C 267.645 200.975,267.780 201.200,268.000 201.200 C 268.220 201.200,268.400 201.560,268.400 202.000 C 268.400 202.440,268.625 202.755,268.900 202.700 C 269.175 202.645,269.375 202.913,269.345 203.296 C 269.315 203.678,269.426 203.907,269.593 203.804 C 270.016 203.543,272.862 206.376,272.601 206.799 C 272.483 206.989,272.598 207.275,272.855 207.434 C 273.165 207.625,273.216 207.549,273.006 207.210 C 272.794 206.867,272.874 206.758,273.244 206.881 C 273.550 206.983,273.822 207.277,273.850 207.533 C 273.954 208.507,274.021 208.586,274.330 208.099 C 274.573 207.717,274.834 207.772,275.437 208.334 C 275.872 208.739,276.723 209.194,277.330 209.347 C 277.936 209.499,278.325 209.798,278.193 210.012 C 277.914 210.462,278.279 210.469,279.391 210.035 C 279.891 209.839,280.381 209.924,280.720 210.263 C 281.218 210.761,282.456 211.013,283.400 210.808 C 285.100 210.439,287.822 210.399,288.771 210.730 C 289.624 211.027,290.199 210.982,291.028 210.552 C 291.640 210.234,292.649 210.054,293.271 210.152 C 294.086 210.281,294.400 210.164,294.400 209.732 C 294.400 209.403,294.623 209.208,294.896 209.299 C 295.169 209.390,295.646 209.212,295.955 208.903 C 296.383 208.475,296.587 208.456,296.814 208.823 C 297.018 209.153,297.198 209.035,297.383 208.453 C 297.619 207.711,298.004 207.520,299.051 207.625 C 299.188 207.639,299.503 207.248,299.751 206.757 C 299.998 206.265,300.470 205.775,300.800 205.667 C 301.328 205.494,301.330 205.562,300.817 206.235 C 300.497 206.656,300.902 206.380,301.717 205.622 C 303.168 204.273,303.789 203.413,302.600 204.400 C 302.270 204.674,302.000 204.736,302.000 204.538 C 302.000 204.138,303.698 202.583,303.975 202.729 C 304.071 202.780,304.197 202.502,304.254 202.112 C 304.311 201.721,304.697 201.127,305.110 200.793 C 305.523 200.458,305.779 199.938,305.679 199.636 C 305.578 199.335,305.668 199.195,305.878 199.324 C 306.088 199.454,306.246 199.164,306.230 198.680 C 306.213 198.196,306.407 197.839,306.659 197.886 C 306.930 197.937,307.034 197.653,306.914 197.191 C 306.790 196.717,306.946 196.319,307.310 196.179 C 307.671 196.041,307.831 195.640,307.711 195.180 C 307.403 194.005,307.931 192.850,308.427 193.611 C 308.687 194.009,308.728 193.649,308.555 192.502 C 308.391 191.417,308.471 190.597,308.776 190.229 C 309.291 189.609,309.314 188.800,308.963 183.636 C 308.700 179.750,309.001 177.443,309.720 177.848 C 310.061 178.039,310.055 177.961,309.700 177.579 C 309.425 177.282,309.200 176.648,309.200 176.169 C 309.200 175.690,308.922 175.067,308.582 174.785 C 308.233 174.496,308.075 173.994,308.218 173.636 C 308.755 172.297,308.701 171.263,308.106 171.492 C 307.654 171.665,307.554 171.377,307.645 170.156 C 307.729 169.029,307.615 168.632,307.231 168.717 C 306.864 168.797,306.759 168.525,306.891 167.836 C 307.005 167.239,306.905 166.872,306.641 166.920 C 306.398 166.964,306.213 166.604,306.230 166.120 C 306.246 165.636,306.088 165.346,305.878 165.476 C 305.668 165.605,305.578 165.465,305.679 165.164 C 305.779 164.862,305.523 164.342,305.110 164.007 C 304.697 163.673,304.311 163.079,304.254 162.688 C 304.197 162.298,304.036 162.028,303.897 162.089 C 303.428 162.295,300.780 159.430,300.973 158.925 C 301.079 158.651,300.965 158.302,300.721 158.151 C 300.452 157.985,300.389 158.059,300.562 158.338 C 300.719 158.592,300.651 158.800,300.411 158.800 C 300.171 158.800,299.824 158.395,299.641 157.900 C 299.458 157.405,299.194 157.045,299.054 157.100 C 298.312 157.392,297.676 157.103,297.288 156.300 C 297.049 155.805,296.842 155.646,296.827 155.946 C 296.806 156.381,296.596 156.358,295.800 155.837 C 295.250 155.476,294.800 155.282,294.800 155.405 C 294.800 155.528,294.395 155.405,293.900 155.132 C 293.405 154.859,292.694 154.683,292.319 154.740 C 291.945 154.797,291.174 154.540,290.607 154.168 C 290.039 153.796,289.467 153.600,289.335 153.732 C 289.203 153.864,288.737 153.780,288.299 153.546 C 287.765 153.260,287.588 153.257,287.760 153.536 M118.927 154.078 C 119.557 154.468,118.203 154.946,117.208 154.686 C 116.747 154.566,116.463 154.670,116.514 154.941 C 116.561 155.193,116.195 155.386,115.700 155.368 C 115.202 155.351,114.800 155.574,114.800 155.868 C 114.800 156.161,114.620 156.423,114.400 156.450 C 114.180 156.478,113.780 156.523,113.512 156.550 C 113.243 156.578,112.820 157.008,112.571 157.507 C 111.827 159.001,111.544 159.055,111.790 157.657 C 111.960 156.692,111.894 156.418,111.543 156.635 C 111.232 156.827,111.141 156.732,111.282 156.364 C 111.402 156.051,111.218 155.533,110.874 155.211 C 110.318 154.692,110.280 154.710,110.533 155.370 C 110.774 155.998,110.725 156.035,110.214 155.611 C 109.881 155.335,109.707 154.950,109.828 154.755 C 109.952 154.555,107.508 154.400,104.224 154.400 C 99.467 154.400,98.400 154.504,98.400 154.966 C 98.400 155.278,97.860 155.772,97.200 156.064 L 96.000 156.595 96.000 182.498 C 96.000 201.966,96.116 208.400,96.467 208.400 C 96.723 208.400,96.824 208.509,96.691 208.643 C 96.288 209.045,97.354 209.916,97.964 209.682 C 98.276 209.562,98.427 209.633,98.299 209.839 C 98.159 210.066,100.588 210.240,104.434 210.279 C 108.402 210.319,110.800 210.194,110.800 209.948 C 110.800 209.731,110.960 209.651,111.155 209.772 C 111.350 209.893,111.735 209.719,112.011 209.386 C 112.436 208.875,112.397 208.825,111.757 209.066 C 111.090 209.316,111.065 209.270,111.545 208.679 C 111.845 208.311,112.246 208.105,112.437 208.223 C 112.629 208.341,112.831 200.968,112.891 191.656 C 112.951 182.427,112.885 174.947,112.745 175.034 C 112.605 175.120,112.399 174.840,112.287 174.410 C 112.042 173.472,112.989 172.481,113.363 173.283 C 113.496 173.567,113.515 173.323,113.405 172.741 C 113.277 172.064,113.457 171.408,113.903 170.922 C 114.286 170.504,114.420 170.441,114.200 170.781 C 113.851 171.321,113.890 171.329,114.500 170.851 C 114.885 170.549,115.200 170.093,115.200 169.837 C 115.200 168.678,117.501 167.917,118.689 168.684 C 120.339 169.747,121.189 170.900,120.987 171.800 C 120.888 172.240,120.913 172.367,121.043 172.083 C 121.367 171.371,122.429 172.260,122.143 173.004 C 121.776 173.960,121.783 208.336,122.150 208.266 C 122.343 208.230,122.591 208.450,122.702 208.756 C 122.842 209.142,122.736 209.210,122.352 208.979 C 121.898 208.706,121.900 208.770,122.365 209.342 C 122.809 209.889,123.000 209.927,123.259 209.519 C 123.515 209.114,123.589 209.132,123.594 209.600 C 123.599 210.108,124.580 210.200,130.000 210.200 C 133.612 210.200,136.400 210.040,136.400 209.833 C 136.400 209.632,136.509 209.576,136.643 209.709 C 137.045 210.112,137.916 209.046,137.682 208.436 C 137.541 208.070,137.633 207.973,137.941 208.163 C 138.563 208.548,138.577 177.028,137.956 175.245 C 137.626 174.298,137.682 173.914,138.247 173.253 C 138.633 172.803,138.991 172.141,139.044 171.782 C 139.199 170.728,140.507 169.535,141.285 169.738 C 141.679 169.841,141.908 169.775,141.795 169.591 C 141.475 169.073,143.085 168.711,144.412 169.003 C 145.069 169.147,145.506 169.428,145.383 169.628 C 145.259 169.828,145.438 169.884,145.779 169.753 C 146.345 169.535,146.600 169.992,146.437 170.930 C 146.406 171.111,146.565 171.145,146.790 171.006 C 147.016 170.867,147.214 170.898,147.231 171.076 C 147.247 171.254,147.342 171.760,147.441 172.200 C 147.701 173.352,147.611 206.683,147.346 207.509 C 147.178 208.033,147.218 208.070,147.509 207.662 C 147.881 207.142,148.659 208.841,148.456 209.730 C 148.414 209.911,148.565 209.945,148.790 209.806 C 149.016 209.667,149.200 209.708,149.200 209.899 C 149.200 210.885,161.611 210.352,162.642 209.322 L 163.645 208.318 163.652 187.136 C 163.657 171.802,163.533 165.801,163.201 165.401 C 162.934 165.080,162.839 164.243,162.973 163.400 C 163.140 162.348,163.075 162.030,162.734 162.241 C 162.418 162.436,162.347 162.315,162.518 161.870 C 162.671 161.472,162.586 161.247,162.304 161.305 C 162.047 161.357,161.813 161.220,161.784 161.000 C 161.683 160.239,161.057 158.999,160.629 158.715 C 160.393 158.558,160.192 158.198,160.182 157.915 C 160.172 157.632,159.942 157.447,159.671 157.504 C 159.400 157.561,159.073 157.336,158.946 157.004 C 158.819 156.672,158.374 156.400,157.957 156.400 C 157.541 156.400,157.200 156.209,157.200 155.976 C 157.200 155.743,157.027 155.660,156.815 155.791 C 156.603 155.922,156.094 155.694,155.685 155.285 C 155.193 154.793,154.679 154.636,154.170 154.822 C 153.695 154.996,153.131 154.869,152.698 154.488 C 151.798 153.699,145.943 153.618,145.022 154.382 C 144.684 154.662,143.877 154.814,143.228 154.719 C 142.526 154.616,142.079 154.718,142.124 154.973 C 142.166 155.208,141.804 155.387,141.320 155.370 C 140.836 155.354,140.531 155.489,140.643 155.670 C 140.826 155.966,140.261 156.160,139.524 156.055 C 139.373 156.034,139.136 156.373,138.997 156.808 C 138.859 157.244,138.568 157.600,138.349 157.600 C 138.131 157.600,138.082 157.375,138.241 157.100 C 138.399 156.825,138.050 157.036,137.465 157.570 C 136.360 158.576,136.067 159.053,136.852 158.568 C 137.127 158.398,137.230 158.507,137.116 158.844 C 136.832 159.685,134.186 159.573,134.250 158.723 C 134.279 158.350,134.085 158.146,133.804 158.254 C 133.531 158.358,132.811 157.849,132.203 157.122 C 131.594 156.395,130.715 155.694,130.248 155.565 C 129.782 155.435,129.439 155.139,129.486 154.906 C 129.534 154.671,129.225 154.573,128.792 154.686 C 127.797 154.946,126.443 154.468,127.073 154.078 C 127.321 153.925,125.488 153.800,123.000 153.800 C 120.512 153.800,118.679 153.925,118.927 154.078 M336.867 154.041 C 337.535 154.454,336.585 154.849,335.429 154.640 C 334.790 154.524,334.452 154.630,334.509 154.928 C 334.559 155.188,334.195 155.386,333.700 155.368 C 333.202 155.351,332.800 155.574,332.800 155.868 C 332.800 156.161,332.609 156.400,332.376 156.400 C 332.143 156.400,332.082 156.175,332.241 155.900 C 332.408 155.610,332.376 155.540,332.164 155.733 C 331.964 155.917,331.834 156.187,331.876 156.333 C 331.975 156.682,330.358 158.400,329.930 158.400 C 329.749 158.400,329.600 157.950,329.600 157.400 C 329.600 156.850,329.409 156.400,329.176 156.400 C 328.943 156.400,328.851 156.240,328.972 156.045 C 329.093 155.850,328.889 155.445,328.519 155.145 C 327.950 154.684,327.897 154.685,328.179 155.152 C 328.410 155.536,328.342 155.642,327.956 155.502 C 327.650 155.391,327.445 155.097,327.500 154.850 C 327.570 154.533,325.889 154.400,321.800 154.400 C 317.064 154.400,316.000 154.504,316.000 154.966 C 316.000 155.278,315.460 155.772,314.800 156.064 L 313.600 156.595 313.600 182.521 C 313.600 202.214,313.713 208.378,314.068 208.158 C 314.389 207.960,314.450 208.092,314.263 208.579 C 314.064 209.099,314.147 209.229,314.575 209.065 C 314.987 208.907,315.086 209.031,314.912 209.486 C 314.747 209.916,314.820 210.035,315.132 209.842 C 315.389 209.683,315.600 209.698,315.600 209.876 C 315.600 210.054,318.480 210.200,322.000 210.200 C 325.520 210.200,328.400 210.054,328.400 209.876 C 328.400 209.698,328.560 209.651,328.755 209.772 C 328.950 209.893,329.355 209.689,329.655 209.319 C 330.116 208.750,330.115 208.697,329.648 208.979 C 329.264 209.210,329.158 209.142,329.298 208.756 C 329.409 208.450,329.706 208.246,329.959 208.303 C 330.520 208.429,330.569 177.697,330.010 176.227 C 329.773 175.602,329.825 175.052,330.169 174.549 C 330.450 174.137,330.801 173.305,330.948 172.700 C 331.105 172.053,331.487 171.600,331.874 171.600 C 332.237 171.600,332.412 171.478,332.263 171.330 C 332.114 171.181,332.343 170.686,332.772 170.230 C 334.093 168.823,339.867 169.397,338.972 170.845 C 338.851 171.040,338.954 171.200,339.200 171.200 C 339.446 171.200,339.550 171.357,339.432 171.548 C 339.313 171.740,339.587 172.324,340.039 172.845 C 340.623 173.518,340.803 174.145,340.659 174.997 C 340.309 177.062,340.182 208.800,340.524 208.800 C 340.702 208.800,340.719 209.008,340.562 209.262 C 340.376 209.562,340.453 209.614,340.783 209.411 C 341.072 209.232,341.423 209.314,341.602 209.603 C 341.830 209.972,343.609 210.120,348.199 210.154 L 354.483 210.200 355.049 209.105 C 355.645 207.952,355.934 172.536,355.360 171.039 C 355.217 170.668,355.220 169.698,355.365 168.883 C 355.792 166.483,355.916 164.288,355.597 164.806 C 355.059 165.675,354.629 164.533,354.291 161.338 C 354.241 160.864,354.077 160.552,353.928 160.645 C 353.778 160.737,353.542 160.630,353.404 160.407 C 353.266 160.183,353.373 160.000,353.643 160.000 C 353.913 160.000,353.998 159.865,353.833 159.700 C 353.668 159.535,353.338 159.400,353.100 159.400 C 352.862 159.400,352.583 159.150,352.481 158.844 C 352.358 158.474,352.467 158.394,352.810 158.606 C 353.149 158.816,353.225 158.765,353.034 158.455 C 352.875 158.198,352.569 158.095,352.355 158.228 C 351.787 158.579,350.727 157.568,350.977 156.915 C 351.095 156.608,351.013 156.469,350.793 156.605 C 350.574 156.740,350.287 156.570,350.155 156.228 C 350.024 155.885,349.766 155.697,349.583 155.811 C 349.399 155.924,349.064 155.698,348.837 155.308 C 348.595 154.894,348.419 154.813,348.412 155.114 C 348.403 155.509,348.209 155.526,347.578 155.188 C 347.126 154.946,346.541 154.826,346.278 154.922 C 346.015 155.017,345.492 154.827,345.115 154.499 C 344.619 154.067,343.333 153.887,340.439 153.843 C 338.244 153.809,336.636 153.899,336.867 154.041 M223.568 155.525 C 222.492 156.657,221.868 166.800,222.874 166.800 C 223.079 166.800,223.164 166.935,223.061 167.100 C 222.959 167.265,226.728 167.344,231.438 167.276 C 237.078 167.194,240.000 167.291,240.000 167.560 C 240.000 167.987,238.426 169.600,238.010 169.600 C 237.878 169.600,237.741 169.987,237.705 170.460 C 237.634 171.408,237.002 172.200,236.318 172.200 C 236.075 172.200,235.823 172.560,235.759 172.999 C 235.694 173.439,235.252 174.114,234.776 174.499 C 234.301 174.885,234.028 175.200,234.170 175.200 C 234.312 175.200,234.233 175.565,233.994 176.011 C 233.745 176.476,233.355 176.705,233.080 176.547 C 232.816 176.396,232.715 176.400,232.855 176.558 C 233.198 176.942,231.451 180.200,230.901 180.200 C 230.662 180.200,230.332 180.335,230.167 180.500 C 230.002 180.665,230.103 180.800,230.393 180.800 C 230.682 180.800,230.354 181.340,229.663 182.000 C 228.972 182.660,228.502 183.200,228.618 183.200 C 228.733 183.200,228.633 183.565,228.394 184.011 C 228.145 184.476,227.755 184.705,227.480 184.547 C 227.216 184.396,227.115 184.400,227.255 184.558 C 227.598 184.942,225.851 188.200,225.301 188.200 C 225.062 188.200,224.732 188.335,224.567 188.500 C 224.402 188.665,224.503 188.800,224.793 188.800 C 225.082 188.800,224.797 189.312,224.159 189.939 C 223.522 190.565,222.941 191.328,222.868 191.635 C 222.795 191.942,222.555 192.304,222.334 192.441 C 222.113 192.578,221.902 192.849,221.866 193.045 C 221.830 193.240,221.671 193.357,221.514 193.305 C 221.357 193.252,221.343 193.507,221.482 193.870 C 221.660 194.333,221.586 194.439,221.237 194.223 C 220.855 193.987,220.813 194.228,221.058 195.257 C 221.234 195.996,221.382 199.230,221.389 202.444 L 221.400 208.287 223.000 208.209 C 223.880 208.166,225.015 208.281,225.523 208.464 C 226.055 208.656,226.352 208.647,226.225 208.441 C 225.972 208.032,227.109 207.497,227.594 207.796 C 227.771 207.906,228.016 207.735,228.138 207.417 C 228.263 207.091,228.715 206.907,229.172 206.995 C 229.649 207.086,229.946 206.955,229.892 206.675 C 229.841 206.414,230.160 206.190,230.600 206.177 C 231.040 206.165,231.793 205.940,232.274 205.677 C 233.437 205.042,234.529 205.055,234.165 205.700 C 233.939 206.100,233.990 206.100,234.421 205.700 C 234.718 205.425,235.269 205.200,235.647 205.200 C 236.024 205.200,236.405 204.985,236.493 204.722 C 236.681 204.158,244.328 203.955,245.061 204.495 C 245.906 205.116,247.886 205.518,248.433 205.180 C 248.745 204.987,249.198 205.033,249.506 205.288 C 249.940 205.648,249.942 205.789,249.519 206.055 C 249.214 206.246,249.550 206.312,250.332 206.215 C 252.021 206.006,253.111 206.354,252.334 206.855 C 252.012 207.062,252.318 207.100,253.100 206.949 C 254.127 206.752,254.400 206.834,254.400 207.337 C 254.400 207.768,254.616 207.892,255.066 207.719 C 255.432 207.579,255.629 207.630,255.504 207.832 C 255.374 208.043,256.518 208.200,258.187 208.200 C 260.532 208.200,261.056 208.090,260.881 207.634 C 260.735 207.254,260.830 207.171,261.172 207.383 C 261.570 207.629,261.585 207.519,261.240 206.875 C 260.745 205.949,260.685 197.839,261.164 196.612 C 261.371 196.083,261.257 195.624,260.817 195.212 C 260.315 194.742,260.306 194.693,260.781 195.000 C 261.314 195.345,261.327 195.306,260.871 194.724 C 260.580 194.352,260.078 194.149,259.756 194.272 C 259.434 194.396,258.862 194.226,258.485 193.896 C 258.108 193.565,257.392 193.170,256.894 193.019 C 256.396 192.867,256.086 192.585,256.205 192.392 C 256.324 192.199,256.031 192.117,255.554 192.209 C 255.077 192.301,254.397 192.207,254.043 192.000 C 253.546 191.710,253.529 191.622,253.967 191.612 C 254.278 191.605,254.446 191.513,254.340 191.407 C 254.234 191.301,253.598 191.371,252.927 191.564 C 251.522 191.967,250.215 191.448,251.137 190.853 C 251.685 190.500,249.804 190.596,247.347 191.047 C 246.623 191.180,245.980 191.092,245.824 190.838 C 245.675 190.597,245.138 190.400,244.632 190.400 C 243.369 190.400,243.694 188.496,245.045 187.983 C 245.662 187.748,245.904 187.415,245.750 187.013 C 245.596 186.614,245.747 186.400,246.181 186.400 C 246.547 186.400,246.743 186.231,246.615 186.025 C 246.488 185.818,246.702 185.471,247.092 185.253 C 247.481 185.035,247.755 184.754,247.700 184.628 C 247.458 184.075,247.652 183.548,248.358 182.842 C 248.775 182.425,249.362 181.570,249.663 180.942 C 249.964 180.314,250.461 179.800,250.767 179.800 C 251.073 179.800,251.377 179.440,251.441 179.001 C 251.506 178.561,251.948 177.886,252.424 177.501 C 252.899 177.115,253.172 176.800,253.030 176.800 C 252.888 176.800,252.967 176.435,253.206 175.989 C 253.445 175.543,253.839 175.300,254.082 175.451 C 254.340 175.610,254.411 175.541,254.253 175.286 C 254.105 175.046,254.244 174.703,254.563 174.525 C 255.124 174.210,255.200 174.053,255.200 173.200 C 255.200 172.980,255.515 172.797,255.900 172.794 C 256.498 172.789,256.513 172.731,256.000 172.400 C 255.419 172.025,255.477 171.957,256.462 171.850 C 256.716 171.822,256.977 171.440,257.041 171.001 C 257.106 170.561,257.528 169.902,257.979 169.536 C 258.431 169.171,258.800 168.586,258.800 168.236 C 258.800 167.886,259.010 167.600,259.267 167.600 C 259.523 167.600,259.620 167.486,259.481 167.347 C 259.157 167.024,259.948 165.520,260.320 165.751 C 261.208 166.300,260.462 156.376,259.542 155.407 L 258.600 154.414 241.600 154.426 L 224.600 154.439 223.568 155.525 M289.494 167.755 C 290.180 168.563,290.177 168.571,289.400 168.035 C 288.960 167.732,289.306 168.109,290.169 168.875 C 291.228 169.814,291.656 170.476,291.489 170.913 C 291.351 171.271,291.559 171.955,291.953 172.441 C 292.692 173.354,292.643 175.397,291.892 174.934 C 291.626 174.769,291.600 174.876,291.819 175.231 C 292.008 175.536,292.190 176.059,292.224 176.393 C 292.259 176.727,292.492 178.068,292.743 179.373 C 293.375 182.656,293.319 184.201,292.447 187.521 C 292.033 189.099,291.833 190.303,292.001 190.199 C 292.170 190.095,292.392 190.448,292.495 190.985 C 292.609 191.579,292.470 192.041,292.141 192.167 C 291.843 192.282,291.600 192.831,291.600 193.387 C 291.600 193.985,291.372 194.400,291.044 194.400 C 290.739 194.400,290.514 194.715,290.544 195.100 C 290.575 195.485,290.396 195.762,290.148 195.716 C 289.899 195.670,289.359 196.030,288.948 196.516 L 288.200 197.400 289.100 196.638 C 289.595 196.219,290.000 196.074,290.000 196.315 C 290.000 197.875,285.365 198.598,283.741 197.291 C 282.688 196.443,281.200 193.549,281.200 192.347 C 281.200 191.861,280.916 191.149,280.568 190.765 C 280.126 190.276,280.045 189.846,280.298 189.333 C 280.702 188.515,280.691 174.557,280.286 174.152 C 280.144 174.011,280.292 173.519,280.614 173.058 C 280.936 172.598,281.200 171.812,281.200 171.311 C 281.200 170.777,281.443 170.400,281.787 170.400 C 282.145 170.400,282.285 170.165,282.145 169.800 C 281.993 169.404,282.167 169.189,282.657 169.168 C 283.072 169.151,283.181 169.048,282.904 168.936 C 282.527 168.784,282.550 168.593,283.001 168.142 C 283.327 167.816,283.780 167.664,284.007 167.804 C 284.234 167.945,284.394 167.911,284.363 167.730 C 284.220 166.909,284.536 166.784,286.594 166.851 C 288.264 166.906,288.956 167.121,289.494 167.755 M336.945 168.600 C 337.122 169.062,336.856 169.200,335.787 169.200 C 334.425 169.200,333.915 168.662,334.900 168.265 C 335.877 167.871,336.718 168.008,336.945 168.600 M71.848 184.408 C 72.116 184.676,72.132 185.735,71.896 187.508 C 71.698 188.988,71.521 190.695,71.501 191.300 C 71.482 191.907,71.238 192.400,70.956 192.400 C 70.661 192.400,70.511 192.738,70.600 193.200 C 70.685 193.640,70.574 194.000,70.353 194.000 C 70.133 194.000,70.064 194.180,70.200 194.400 C 70.336 194.620,70.156 194.800,69.800 194.800 C 69.444 194.800,69.248 194.954,69.364 195.142 C 69.659 195.619,67.817 197.276,67.406 196.904 C 67.222 196.737,67.202 196.826,67.361 197.103 C 67.538 197.410,67.369 197.694,66.925 197.832 C 66.526 197.957,65.896 198.220,65.524 198.418 C 64.523 198.949,61.675 197.322,60.941 195.800 C 60.360 194.594,60.538 189.774,61.159 189.910 C 61.436 189.971,61.537 189.822,61.386 189.577 C 61.064 189.056,63.162 186.729,63.671 187.044 C 63.863 187.162,63.970 187.021,63.910 186.730 C 63.843 186.408,64.153 186.212,64.700 186.232 C 65.195 186.249,65.600 186.054,65.600 185.798 C 65.600 185.543,66.123 185.333,66.762 185.333 C 67.401 185.333,68.224 185.033,68.590 184.667 C 69.331 183.926,71.216 183.776,71.848 184.408 M197.911 184.500 C 198.332 185.015,198.018 187.755,197.242 190.323 C 197.022 191.051,196.942 191.906,197.064 192.223 C 197.202 192.583,197.035 192.800,196.619 192.800 C 196.253 192.800,196.066 192.983,196.205 193.207 C 196.768 194.118,193.908 197.510,192.319 197.816 C 191.879 197.900,191.281 198.167,190.991 198.408 C 189.988 199.240,186.669 196.765,186.993 195.427 C 187.103 194.972,187.089 194.826,186.962 195.102 C 186.638 195.809,186.000 195.312,186.000 194.353 C 186.000 193.873,186.176 193.662,186.440 193.825 C 186.757 194.021,186.761 193.875,186.454 193.301 C 186.220 192.863,186.126 192.407,186.246 192.287 C 186.367 192.167,186.264 191.693,186.018 191.234 C 185.588 190.430,185.816 190.194,186.875 190.344 C 187.027 190.366,187.086 190.046,187.006 189.633 C 186.921 189.190,187.299 188.495,187.928 187.941 L 188.994 187.000 188.200 188.000 L 187.406 189.000 188.491 188.042 C 189.087 187.515,189.492 186.949,189.390 186.784 C 189.127 186.358,190.283 185.980,191.005 186.257 C 191.416 186.415,191.538 186.305,191.387 185.911 C 191.223 185.484,191.488 185.333,192.402 185.333 C 193.082 185.333,193.938 185.033,194.305 184.667 C 195.087 183.884,197.323 183.781,197.911 184.500 M220.148 201.600 C 220.148 203.910,220.214 204.855,220.295 203.700 C 220.376 202.545,220.376 200.655,220.295 199.500 C 220.214 198.345,220.148 199.290,220.148 201.600 M262.140 202.000 C 262.140 203.870,262.209 204.635,262.293 203.700 C 262.377 202.765,262.377 201.235,262.293 200.300 C 262.209 199.365,262.140 200.130,262.140 202.000 " stroke="none" fill="#040404" fill-rule="evenodd"></path></g></svg>