<svg id="svg" version="1.1" xmlns="http://www.w3.org/2000/svg" xmlns:xlink="http://www.w3.org/1999/xlink" width="400" height="224.84210526315792" viewBox="0, 0, 400,224.84210526315792"><g id="svgg"><path id="path0" d="M274.526 5.355 C 273.774 5.625,271.320 6.479,269.073 7.255 L 264.989 8.664 264.398 8.227 C 263.500 7.563,263.335 7.601,254.913 10.426 C 245.093 13.720,244.867 13.902,246.107 17.479 C 246.751 19.335,246.706 19.399,244.230 20.184 C 242.591 20.703,242.022 20.983,241.745 21.407 C 241.546 21.710,240.860 22.189,240.218 22.472 C 235.818 24.416,232.008 29.188,228.627 36.990 C 227.151 40.396,227.790 40.087,221.368 40.495 C 215.002 40.900,204.317 41.640,192.105 42.521 C 187.358 42.863,177.316 43.574,169.789 44.101 C 162.263 44.628,152.126 45.344,147.263 45.691 C 142.400 46.039,137.095 46.416,135.474 46.529 C 126.728 47.141,107.245 48.520,98.316 49.160 C 92.700 49.562,85.311 50.082,81.895 50.315 C 66.083 51.392,65.749 51.443,63.541 53.109 C 59.606 56.078,58.978 58.518,60.087 66.542 C 61.359 75.743,62.284 82.527,62.525 84.421 C 62.650 85.405,63.077 88.579,63.473 91.474 C 63.870 94.368,64.629 99.958,65.161 103.895 C 67.015 117.625,67.093 118.002,68.494 119.838 C 70.692 122.720,74.241 123.989,80.316 124.065 C 83.280 124.103,85.455 122.734,86.678 120.062 L 87.218 118.884 86.972 110.968 C 86.837 106.615,86.634 100.637,86.520 97.684 C 85.728 77.068,85.641 66.952,86.245 65.645 C 87.640 62.627,89.226 61.941,96.021 61.416 C 104.443 60.766,105.682 61.583,105.414 67.607 C 105.244 71.444,106.058 71.071,97.521 71.227 C 88.800 71.386,87.355 71.636,88.014 72.869 C 88.409 73.606,94.088 73.830,101.740 73.411 L 104.638 73.252 104.853 73.817 C 105.166 74.642,104.720 81.055,104.321 81.453 C 104.084 81.690,103.242 81.743,100.170 81.715 C 90.626 81.628,86.641 82.330,88.767 83.724 C 89.469 84.184,98.226 84.393,101.684 84.032 C 104.285 83.760,104.332 83.801,104.270 86.273 C 104.197 89.240,103.620 97.969,103.472 98.352 C 103.263 98.894,103.184 98.898,97.579 98.681 C 90.417 98.404,88.165 98.735,88.824 99.966 C 89.235 100.733,90.366 100.879,96.806 100.995 L 102.981 101.106 103.203 101.594 C 103.550 102.356,103.134 108.535,102.707 108.962 C 102.415 109.254,101.824 109.264,97.276 109.053 C 90.799 108.753,89.053 108.932,89.053 109.897 C 89.053 110.968,91.304 111.354,98.076 111.446 C 103.302 111.517,102.844 111.068,102.668 115.945 C 102.367 124.269,104.552 126.736,112.850 127.444 C 118.363 127.914,120.321 127.302,122.644 124.380 C 123.851 122.862,123.918 122.532,125.374 110.947 C 125.556 109.500,125.945 106.658,126.238 104.632 C 126.532 102.605,126.998 99.195,127.274 97.053 C 127.550 94.911,128.118 90.789,128.537 87.895 C 128.956 85.000,129.387 81.874,129.496 80.947 C 129.605 80.021,129.936 77.605,130.231 75.579 C 130.527 73.553,130.906 70.853,131.073 69.579 C 132.365 59.717,133.498 58.650,143.371 57.998 C 149.329 57.605,150.193 57.783,151.344 59.645 C 152.130 60.916,151.357 68.324,150.307 69.589 C 150.159 69.768,148.364 69.883,144.154 69.984 C 137.600 70.142,134.345 70.389,133.502 70.792 C 132.767 71.143,132.664 71.889,133.303 72.234 C 133.913 72.563,142.862 72.535,146.712 72.192 C 150.198 71.881,150.069 71.600,148.967 77.106 C 148.041 81.733,148.825 81.263,142.027 81.265 C 134.052 81.267,131.368 81.637,131.368 82.735 C 131.368 83.672,134.251 83.868,143.789 83.579 L 147.263 83.474 147.326 84.229 C 147.405 85.171,144.715 98.689,144.334 99.262 C 144.063 99.670,143.847 99.681,137.343 99.631 C 130.360 99.578,129.471 99.667,128.971 100.470 C 128.285 101.571,130.221 101.879,137.945 101.894 L 143.574 101.906 143.698 102.402 C 143.859 103.044,142.412 110.099,142.044 110.468 C 141.812 110.699,140.973 110.706,137.250 110.508 C 129.923 110.117,127.368 110.396,127.368 111.589 C 127.368 112.437,128.834 112.648,135.895 112.817 L 141.368 112.947 141.434 113.745 C 141.470 114.184,141.154 116.363,140.731 118.587 C 139.639 124.326,139.847 125.887,142.011 128.201 C 144.455 130.814,152.129 131.900,155.847 130.159 C 159.126 128.623,159.941 127.272,161.883 120.153 C 162.680 117.232,163.570 113.989,163.860 112.947 C 164.150 111.905,164.880 109.211,165.481 106.960 C 166.081 104.709,166.699 102.511,166.853 102.075 C 167.006 101.640,167.369 100.308,167.659 99.115 C 167.949 97.923,169.056 93.821,170.119 90.000 C 172.723 80.642,172.689 80.766,173.676 77.053 C 174.152 75.258,174.869 72.653,175.268 71.263 C 175.667 69.874,176.426 67.079,176.955 65.053 C 179.142 56.677,180.654 55.467,189.738 54.821 C 196.469 54.342,197.895 54.887,197.895 57.942 C 197.895 58.840,195.000 67.956,194.538 68.512 C 194.379 68.704,192.624 68.812,187.950 68.916 C 179.732 69.099,177.882 69.361,177.557 70.384 C 177.284 71.245,177.886 71.369,182.303 71.362 C 186.229 71.356,190.310 71.140,192.474 70.825 L 193.474 70.680 193.474 71.482 C 193.474 72.435,191.059 79.943,190.582 80.474 C 190.282 80.807,189.702 80.843,184.441 80.849 C 176.648 80.857,174.316 81.198,174.316 82.326 C 174.316 83.123,175.124 83.204,181.684 83.070 C 185.100 83.000,188.274 82.920,188.737 82.892 C 189.453 82.850,189.588 82.909,189.642 83.287 C 189.705 83.726,184.838 98.982,184.310 100.000 L 184.038 100.526 177.335 100.526 C 170.145 100.526,169.075 100.679,168.879 101.736 C 168.736 102.515,169.684 102.626,176.483 102.629 L 182.966 102.632 183.091 103.133 C 183.254 103.778,180.778 111.381,180.250 111.859 C 179.910 112.167,179.550 112.179,176.830 111.976 C 172.318 111.640,167.196 111.788,166.451 112.276 C 165.679 112.782,165.767 113.485,166.632 113.727 C 167.765 114.043,175.818 114.375,177.402 114.170 C 179.909 113.847,179.905 113.733,177.665 120.581 C 175.297 127.819,175.291 129.322,177.617 131.809 C 180.542 134.936,189.572 135.215,193.451 132.299 C 195.819 130.519,199.711 122.169,202.529 112.823 C 202.863 111.713,203.764 109.060,204.531 106.928 C 205.298 104.797,206.472 101.489,207.140 99.579 C 209.062 94.085,212.845 83.988,213.375 82.938 C 213.640 82.412,214.021 81.418,214.220 80.728 C 214.714 79.017,217.514 71.691,218.163 70.408 C 218.453 69.836,218.810 68.942,218.957 68.421 C 219.417 66.789,228.624 43.749,229.346 42.421 C 229.724 41.726,230.150 40.684,230.293 40.105 C 231.921 33.497,239.695 23.766,242.912 24.310 C 243.504 24.410,244.080 24.302,245.169 23.886 C 247.892 22.848,247.988 22.887,248.838 25.357 C 249.813 28.189,249.575 28.200,259.636 24.855 C 267.821 22.135,267.978 22.072,268.402 21.353 C 268.640 20.951,268.954 20.588,269.101 20.547 C 271.846 19.778,280.024 16.961,280.229 16.715 C 280.600 16.268,277.045 5.386,276.418 5.051 C 275.950 4.800,276.177 4.764,274.526 5.355 M272.157 8.474 C 272.782 9.261,272.913 10.381,272.427 10.775 C 271.383 11.620,270.521 11.177,270.016 9.537 C 269.729 8.606,271.546 7.704,272.157 8.474 M274.263 14.789 C 274.888 15.577,275.019 16.696,274.532 17.091 C 273.489 17.935,272.627 17.493,272.121 15.853 C 271.834 14.922,273.651 14.020,274.263 14.789 M231.526 40.752 C 230.631 41.238,230.821 41.623,232.285 42.287 C 235.534 43.760,237.132 46.590,236.311 49.416 C 235.922 50.753,232.028 60.366,231.241 61.930 C 229.821 64.755,227.296 66.782,223.923 67.805 C 219.325 69.201,218.589 70.322,222.277 70.313 C 226.440 70.302,231.134 67.499,233.200 63.789 C 234.261 61.886,238.752 50.580,238.959 49.291 C 239.726 44.529,234.863 38.942,231.526 40.752 M226.025 42.201 C 226.205 42.668,225.735 43.981,222.896 50.949 C 221.457 54.481,219.399 59.644,218.323 62.423 C 215.819 68.887,216.819 68.171,210.105 68.316 C 203.686 68.455,201.144 68.689,199.859 69.257 C 198.828 69.713,198.621 70.381,199.421 70.668 C 200.084 70.906,209.305 70.779,211.646 70.500 C 215.540 70.035,215.436 69.680,213.168 75.678 C 211.075 81.213,212.014 80.630,205.178 80.638 C 197.596 80.647,195.211 81.000,194.990 82.145 C 194.838 82.934,202.596 83.301,207.368 82.730 C 208.353 82.612,209.347 82.494,209.579 82.468 C 210.399 82.376,210.191 83.466,208.550 87.858 C 207.678 90.194,206.261 94.028,205.402 96.378 C 204.543 98.729,203.773 100.718,203.692 100.799 C 203.610 100.881,200.543 100.947,196.877 100.947 C 189.727 100.947,188.653 101.102,188.458 102.157 C 188.314 102.938,189.261 103.049,196.053 103.051 L 202.526 103.053 202.526 103.719 C 202.526 104.494,199.903 112.184,199.501 112.588 C 199.281 112.809,198.265 112.814,194.082 112.614 C 187.380 112.294,184.632 112.639,184.632 113.800 C 184.632 114.537,190.725 115.111,195.842 114.855 L 198.526 114.721 198.526 115.362 C 198.526 115.714,198.063 117.257,197.496 118.791 C 192.928 131.149,191.945 132.110,184.421 131.571 C 177.352 131.065,177.214 130.561,180.998 119.053 C 182.407 114.768,184.084 109.653,184.725 107.684 C 185.366 105.716,186.217 103.111,186.617 101.895 C 187.016 100.679,188.824 95.137,190.634 89.579 C 192.444 84.021,194.712 77.105,195.674 74.211 C 201.359 57.111,201.493 56.258,198.897 53.753 C 197.010 51.933,196.182 51.807,189.414 52.305 C 182.884 52.786,181.261 53.267,178.814 55.448 C 176.553 57.463,175.919 58.803,174.100 65.411 C 172.919 69.702,173.777 69.234,166.842 69.374 C 156.436 69.585,153.592 70.110,155.041 71.551 C 155.473 71.980,165.816 71.991,169.548 71.567 C 172.701 71.209,172.587 70.818,171.021 76.632 C 169.684 81.591,170.637 81.051,163.206 81.059 C 156.679 81.066,154.329 81.238,153.264 81.789 C 152.450 82.210,152.424 82.878,153.211 83.180 C 153.716 83.375,165.435 83.321,168.000 83.112 C 169.169 83.018,169.092 83.715,167.160 90.748 C 164.914 98.924,164.665 99.743,164.362 99.939 C 164.221 100.030,160.979 100.105,157.158 100.105 C 149.917 100.105,149.272 100.178,148.946 101.027 C 148.535 102.097,150.464 102.365,158.072 102.296 L 163.474 102.247 163.543 102.953 C 163.613 103.674,162.066 109.758,161.554 110.772 L 161.271 111.333 154.793 111.217 C 147.745 111.091,146.737 111.213,146.737 112.192 C 146.737 113.127,149.169 113.460,156.059 113.468 C 161.147 113.475,160.916 113.355,160.325 115.669 C 159.783 117.792,158.583 122.178,158.097 123.813 C 157.002 127.498,154.529 128.696,148.998 128.221 C 142.428 127.657,141.836 126.595,143.473 118.316 C 144.011 115.595,144.773 111.663,145.167 109.579 C 145.560 107.495,146.171 104.416,146.525 102.737 C 146.878 101.058,147.740 96.747,148.440 93.158 C 149.140 89.568,149.992 85.305,150.333 83.684 C 154.802 62.465,155.085 60.022,153.343 57.737 C 151.499 55.319,150.191 55.021,143.351 55.459 C 135.969 55.931,134.555 56.353,132.086 58.823 C 130.021 60.887,129.546 62.054,128.855 66.755 C 128.362 70.111,128.305 70.291,127.714 70.410 C 127.466 70.460,124.042 70.551,120.105 70.613 C 111.087 70.755,109.331 71.046,109.819 72.316 C 110.113 73.084,122.301 73.342,126.174 72.661 C 127.999 72.341,128.017 72.434,127.264 78.097 C 126.763 81.857,127.488 81.473,120.887 81.477 C 114.736 81.481,110.844 81.720,109.947 82.149 C 109.192 82.509,109.079 83.250,109.724 83.617 C 110.275 83.932,121.616 84.023,124.372 83.735 C 126.417 83.522,126.513 83.703,126.037 86.887 C 125.851 88.136,125.451 91.053,125.149 93.368 C 124.541 98.042,124.329 99.068,123.945 99.214 C 123.802 99.269,121.268 99.246,118.316 99.163 C 110.369 98.938,108.096 99.190,108.250 100.277 C 108.378 101.171,109.446 101.315,116.737 101.423 C 121.424 101.493,123.521 101.596,123.628 101.761 C 124.024 102.372,123.172 109.129,122.630 109.670 C 122.393 109.908,121.892 109.955,120.373 109.883 C 115.241 109.638,108.236 109.779,107.880 110.134 C 106.547 111.469,108.739 111.949,116.921 112.115 C 122.653 112.232,122.316 112.153,122.316 113.373 C 122.316 120.440,120.449 124.500,116.982 124.975 C 112.018 125.656,106.599 124.044,105.563 121.579 C 105.236 120.800,105.067 113.751,105.364 113.271 C 105.410 113.196,105.548 110.914,105.671 108.199 C 105.793 105.484,105.985 102.032,106.098 100.526 C 106.210 99.021,106.401 95.753,106.522 93.263 C 106.643 90.774,106.836 87.221,106.950 85.368 C 107.064 83.516,107.301 79.632,107.477 76.737 C 107.653 73.842,107.903 69.996,108.034 68.190 C 108.465 62.218,106.420 58.986,101.959 58.591 C 100.304 58.444,91.566 59.099,90.022 59.486 C 85.855 60.529,83.368 63.782,83.197 68.413 C 83.074 71.757,83.348 71.516,79.531 71.627 C 75.251 71.752,73.540 72.595,72.464 75.110 C 70.279 80.215,73.703 84.360,80.031 84.273 L 83.115 84.231 83.336 84.800 C 83.610 85.504,83.997 97.196,83.768 97.826 C 83.610 98.261,83.457 98.287,80.696 98.352 C 76.000 98.463,74.142 99.929,73.937 103.684 C 73.706 107.939,76.837 110.878,81.530 110.809 C 84.509 110.765,84.410 110.622,84.566 115.195 L 84.683 118.632 83.973 119.679 C 82.767 121.459,82.027 121.643,77.779 121.216 C 70.631 120.499,69.743 119.471,68.527 110.519 C 68.110 107.455,67.493 102.958,67.154 100.526 C 66.816 98.095,65.972 91.842,65.278 86.632 C 64.585 81.421,63.534 73.605,62.943 69.263 C 61.578 59.236,61.697 58.201,64.524 55.618 C 66.288 54.005,66.588 53.944,76.105 53.256 C 80.737 52.921,85.711 52.548,87.158 52.428 C 89.574 52.227,98.224 51.616,118.632 50.206 C 122.916 49.910,128.789 49.484,131.684 49.260 C 134.579 49.036,144.574 48.326,153.895 47.682 C 163.216 47.038,174.584 46.233,179.158 45.894 C 183.732 45.554,191.074 45.035,195.474 44.740 C 217.820 43.241,223.544 42.735,225.071 42.125 C 225.777 41.842,225.891 41.851,226.025 42.201 M258.737 57.831 C 249.570 59.383,241.550 66.427,235.892 77.895 C 234.426 80.867,233.995 81.937,230.001 92.526 C 228.429 96.695,226.865 100.816,226.527 101.684 C 226.188 102.553,224.969 105.726,223.817 108.737 C 221.578 114.590,213.769 134.591,211.817 139.474 L 210.639 142.421 210.650 144.947 C 210.674 150.198,211.615 151.696,220.370 160.421 C 229.468 169.488,230.412 171.052,230.414 177.053 C 230.415 183.489,226.869 188.871,220.770 191.689 C 217.833 193.046,217.251 193.105,209.298 192.855 C 205.155 192.725,195.193 192.679,185.173 192.743 C 107.751 193.240,95.035 193.283,92.361 193.054 C 90.831 192.924,85.593 192.752,80.721 192.672 L 71.863 192.526 70.976 191.939 C 68.179 190.087,69.040 186.007,72.379 185.292 C 73.198 185.116,91.960 185.052,143.010 185.049 C 219.393 185.045,214.020 185.138,216.794 183.775 C 221.955 181.241,223.258 176.098,219.879 171.602 C 218.188 169.353,206.230 158.361,203.536 156.579 C 198.541 153.277,195.773 152.620,181.158 151.275 C 165.802 149.861,136.200 147.214,129.263 146.633 C 127.121 146.454,122.716 146.073,119.474 145.786 C 107.548 144.731,94.555 143.594,91.789 143.364 C 76.255 142.069,74.998 141.878,73.647 140.604 C 71.519 138.597,72.821 134.740,75.629 134.738 C 76.062 134.737,81.272 135.164,87.208 135.685 C 101.869 136.973,104.946 137.242,125.684 139.051 C 144.017 140.650,168.550 142.790,172.737 143.157 C 174.011 143.268,177.847 143.609,181.263 143.914 C 185.593 144.301,188.143 144.434,189.684 144.352 C 197.601 143.932,204.438 139.242,207.534 132.105 C 209.057 128.596,211.627 121.753,211.775 120.813 C 212.461 116.474,208.832 112.456,205.128 113.453 C 203.224 113.966,203.403 114.892,205.488 115.313 C 210.002 116.227,210.324 118.261,207.184 126.050 C 204.234 133.368,202.938 135.459,199.798 137.962 C 195.092 141.714,191.306 142.389,180.632 141.378 C 175.422 140.885,170.045 140.413,149.368 138.634 C 145.895 138.336,141.158 137.907,138.842 137.682 C 136.526 137.456,131.695 137.031,128.105 136.737 C 124.516 136.444,118.974 135.970,115.789 135.686 C 112.605 135.402,105.737 134.788,100.526 134.323 C 73.284 131.888,74.999 131.996,73.522 132.631 C 68.792 134.666,68.987 141.510,73.840 143.791 C 75.285 144.470,76.024 144.560,90.316 145.791 C 97.784 146.434,107.637 147.287,112.211 147.686 C 116.784 148.085,125.500 148.844,131.579 149.373 C 163.878 152.183,190.631 154.637,192.526 154.963 C 199.330 156.134,203.717 159.064,214.666 169.749 C 220.344 175.291,220.724 178.254,216.134 181.198 C 214.055 182.531,220.748 182.410,142.632 182.526 L 71.684 182.632 70.508 183.183 C 65.210 185.668,65.735 193.244,71.317 194.867 C 72.487 195.207,79.290 195.177,82.158 194.819 C 83.535 194.647,83.467 195.007,81.874 196.316 C 69.810 206.228,82.536 224.993,96.632 218.077 C 104.800 214.069,106.519 202.080,99.579 197.522 C 98.059 196.525,97.915 196.339,98.465 196.094 C 98.898 195.900,120.731 195.688,161.579 195.481 C 190.912 195.332,201.654 195.139,204.476 194.710 C 206.693 194.373,206.693 194.488,204.476 196.543 C 199.228 201.407,198.149 207.942,201.695 213.385 C 207.751 222.680,222.068 221.026,225.594 210.624 C 227.536 204.894,224.570 197.466,219.842 196.220 C 218.520 195.871,218.737 195.507,220.789 194.637 C 231.019 190.301,235.580 180.332,231.796 170.582 C 230.572 167.427,229.660 166.304,222.331 158.925 C 214.182 150.720,213.430 149.656,213.113 145.872 C 212.946 143.873,212.934 143.907,218.512 129.607 C 223.828 115.975,229.508 101.201,233.576 90.421 C 236.509 82.649,237.557 80.174,239.105 77.368 C 247.307 62.498,258.577 57.014,271.001 61.849 C 277.166 64.249,280.571 68.133,283.935 76.603 C 285.120 79.588,285.288 79.390,280.680 80.428 C 263.813 84.229,260.358 92.181,262.850 121.474 C 265.378 151.199,270.136 168.764,277.857 176.877 C 286.927 186.408,297.735 187.697,312.259 180.978 C 328.602 173.417,333.026 149.012,324.304 114.526 C 316.776 84.763,309.501 77.171,290.279 79.018 C 287.807 79.255,287.692 79.356,287.996 81.032 C 288.129 81.762,288.198 82.399,288.150 82.446 C 288.005 82.592,286.947 80.411,286.947 79.967 C 286.947 79.738,286.836 79.344,286.701 79.091 C 286.565 78.839,286.432 78.111,286.405 77.474 C 286.200 72.639,281.303 64.990,276.402 61.846 C 271.521 58.716,263.832 56.968,258.737 57.831 M82.847 74.111 C 83.413 74.736,83.606 81.206,83.074 81.738 C 82.512 82.300,77.935 82.014,76.569 81.330 C 74.127 80.109,73.599 77.219,75.446 75.191 C 76.197 74.366,76.636 74.231,79.368 73.983 C 80.816 73.851,82.104 73.730,82.231 73.714 C 82.357 73.698,82.635 73.876,82.847 74.111 M216.308 81.042 C 215.008 81.570,215.148 82.439,216.567 82.642 C 221.497 83.347,222.465 86.221,219.923 92.606 C 217.480 98.740,215.636 100.473,210.581 101.383 C 206.683 102.085,206.787 103.453,210.737 103.438 C 217.063 103.414,220.910 99.363,223.692 89.796 C 225.127 84.857,220.483 79.350,216.308 81.042 M293.010 92.296 C 294.344 92.989,295.027 94.246,295.254 96.421 C 295.333 97.174,295.782 99.322,296.252 101.194 C 297.170 104.853,297.190 105.606,296.400 106.610 C 295.793 107.383,295.093 107.363,295.312 106.579 C 296.178 103.481,294.595 95.910,292.511 93.181 C 291.537 91.905,291.701 91.615,293.010 92.296 M288.018 95.014 C 287.745 95.286,287.701 94.779,287.945 94.175 C 288.083 93.836,288.110 93.849,288.174 94.287 C 288.214 94.561,288.143 94.888,288.018 95.014 M83.801 101.074 C 84.247 101.907,84.331 107.849,83.903 108.277 C 83.223 108.957,79.408 108.435,78.122 107.486 C 75.515 105.563,75.681 101.919,78.421 100.948 C 79.861 100.438,83.506 100.523,83.801 101.074 M95.847 196.235 C 96.594 196.624,98.989 199.231,99.739 200.472 C 104.694 208.667,97.955 218.427,88.490 216.763 C 77.590 214.847,76.324 200.545,86.706 196.617 C 88.799 195.825,94.595 195.583,95.847 196.235 M219.175 197.421 C 223.623 201.675,224.809 206.050,222.724 210.513 C 217.521 221.648,200.626 217.396,202.329 205.380 C 203.167 199.467,208.033 195.912,215.418 195.816 L 217.468 195.789 219.175 197.421 " stroke="none" fill="#c2bfbf" fill-rule="evenodd"></path><path id="path1" d="M0.000 112.421 L 0.000 224.842 200.000 224.842 L 400.000 224.842 400.000 112.421 L 400.000 0.000 200.000 0.000 L 0.000 0.000 0.000 112.421 M276.418 5.051 C 277.045 5.386,280.600 16.268,280.229 16.715 C 280.024 16.961,271.846 19.778,269.101 20.547 C 268.954 20.588,268.640 20.951,268.402 21.353 C 267.978 22.072,267.821 22.135,259.636 24.855 C 249.575 28.200,249.813 28.189,248.838 25.357 C 247.988 22.887,247.892 22.848,245.169 23.886 C 244.080 24.302,243.504 24.410,242.912 24.310 C 239.695 23.766,231.921 33.497,230.293 40.105 C 230.150 40.684,229.724 41.726,229.346 42.421 C 228.624 43.749,219.417 66.789,218.957 68.421 C 218.810 68.942,218.453 69.836,218.163 70.408 C 217.514 71.691,214.714 79.017,214.220 80.728 C 214.021 81.418,213.640 82.412,213.375 82.938 C 212.845 83.988,209.062 94.085,207.140 99.579 C 206.472 101.489,205.298 104.797,204.531 106.928 C 203.764 109.060,202.863 111.713,202.529 112.823 C 199.711 122.169,195.819 130.519,193.451 132.299 C 189.572 135.215,180.542 134.936,177.617 131.809 C 175.291 129.322,175.297 127.819,177.665 120.581 C 179.905 113.733,179.909 113.847,177.402 114.170 C 175.818 114.375,167.765 114.043,166.632 113.727 C 165.767 113.485,165.679 112.782,166.451 112.276 C 167.196 111.788,172.318 111.640,176.830 111.976 C 179.550 112.179,179.910 112.167,180.250 111.859 C 180.778 111.381,183.254 103.778,183.091 103.133 L 182.966 102.632 176.483 102.629 C 169.684 102.626,168.736 102.515,168.879 101.736 C 169.075 100.679,170.145 100.526,177.335 100.526 L 184.038 100.526 184.310 100.000 C 184.838 98.982,189.705 83.726,189.642 83.287 C 189.588 82.909,189.453 82.850,188.737 82.892 C 188.274 82.920,185.100 83.000,181.684 83.070 C 175.124 83.204,174.316 83.123,174.316 82.326 C 174.316 81.198,176.648 80.857,184.441 80.849 C 189.702 80.843,190.282 80.807,190.582 80.474 C 191.059 79.943,193.474 72.435,193.474 71.482 L 193.474 70.680 192.474 70.825 C 190.310 71.140,186.229 71.356,182.303 71.362 C 177.886 71.369,177.284 71.245,177.557 70.384 C 177.882 69.361,179.732 69.099,187.950 68.916 C 192.624 68.812,194.379 68.704,194.538 68.512 C 195.000 67.956,197.895 58.840,197.895 57.942 C 197.895 54.887,196.469 54.342,189.738 54.821 C 180.654 55.467,179.142 56.677,176.955 65.053 C 176.426 67.079,175.667 69.874,175.268 71.263 C 174.869 72.653,174.152 75.258,173.676 77.053 C 172.689 80.766,172.723 80.642,170.119 90.000 C 169.056 93.821,167.949 97.923,167.659 99.115 C 167.369 100.308,167.006 101.640,166.853 102.075 C 166.699 102.511,166.081 104.709,165.481 106.960 C 164.880 109.211,164.150 111.905,163.860 112.947 C 163.570 113.989,162.680 117.232,161.883 120.153 C 159.941 127.272,159.126 128.623,155.847 130.159 C 152.129 131.900,144.455 130.814,142.011 128.201 C 139.847 125.887,139.639 124.326,140.731 118.587 C 141.154 116.363,141.470 114.184,141.434 113.745 L 141.368 112.947 135.895 112.817 C 128.834 112.648,127.368 112.437,127.368 111.589 C 127.368 110.396,129.923 110.117,137.250 110.508 C 140.973 110.706,141.812 110.699,142.044 110.468 C 142.412 110.099,143.859 103.044,143.698 102.402 L 143.574 101.906 137.945 101.894 C 130.221 101.879,128.285 101.571,128.971 100.470 C 129.471 99.667,130.360 99.578,137.343 99.631 C 143.847 99.681,144.063 99.670,144.334 99.262 C 144.715 98.689,147.405 85.171,147.326 84.229 L 147.263 83.474 143.789 83.579 C 134.251 83.868,131.368 83.672,131.368 82.735 C 131.368 81.637,134.052 81.267,142.027 81.265 C 148.825 81.263,148.041 81.733,148.967 77.106 C 150.069 71.600,150.198 71.881,146.712 72.192 C 142.862 72.535,133.913 72.563,133.303 72.234 C 132.664 71.889,132.767 71.143,133.502 70.792 C 134.345 70.389,137.600 70.142,144.154 69.984 C 148.364 69.883,150.159 69.768,150.307 69.589 C 150.706 69.109,152.041 62.055,151.902 61.168 C 151.657 59.613,150.647 58.461,149.055 57.920 C 147.138 57.270,137.168 58.355,135.547 59.391 C 132.557 61.302,131.987 62.600,131.073 69.579 C 130.906 70.853,130.527 73.553,130.231 75.579 C 129.936 77.605,129.605 80.021,129.496 80.947 C 129.387 81.874,128.956 85.000,128.537 87.895 C 128.118 90.789,127.550 94.911,127.274 97.053 C 126.998 99.195,126.532 102.605,126.238 104.632 C 125.945 106.658,125.556 109.500,125.374 110.947 C 123.918 122.532,123.851 122.862,122.644 124.380 C 120.321 127.302,118.363 127.914,112.850 127.444 C 104.552 126.736,102.367 124.269,102.668 115.945 C 102.844 111.068,103.302 111.517,98.076 111.446 C 91.304 111.354,89.053 110.968,89.053 109.897 C 89.053 108.932,90.799 108.753,97.276 109.053 C 101.824 109.264,102.415 109.254,102.707 108.962 C 103.134 108.535,103.550 102.356,103.203 101.594 L 102.981 101.106 96.806 100.995 C 90.366 100.879,89.235 100.733,88.824 99.966 C 88.165 98.735,90.417 98.404,97.579 98.681 C 103.184 98.898,103.263 98.894,103.472 98.352 C 103.620 97.969,104.197 89.240,104.270 86.273 C 104.332 83.801,104.285 83.760,101.684 84.032 C 98.226 84.393,89.469 84.184,88.767 83.724 C 86.641 82.330,90.626 81.628,100.170 81.715 C 103.242 81.743,104.084 81.690,104.321 81.453 C 104.720 81.055,105.166 74.642,104.853 73.817 L 104.638 73.252 101.740 73.411 C 94.088 73.830,88.409 73.606,88.014 72.869 C 87.355 71.636,88.800 71.386,97.521 71.227 C 106.058 71.071,105.244 71.444,105.414 67.607 C 105.682 61.583,104.443 60.766,96.021 61.416 C 89.226 61.941,87.640 62.627,86.245 65.645 C 85.641 66.952,85.728 77.068,86.520 97.684 C 86.634 100.637,86.837 106.615,86.972 110.968 L 87.218 118.884 86.678 120.062 C 85.455 122.734,83.280 124.103,80.316 124.065 C 74.241 123.989,70.692 122.720,68.494 119.838 C 67.093 118.002,67.015 117.625,65.161 103.895 C 64.629 99.958,63.870 94.368,63.473 91.474 C 63.077 88.579,62.650 85.405,62.525 84.421 C 62.284 82.527,61.359 75.743,60.087 66.542 C 58.978 58.518,59.606 56.078,63.541 53.109 C 65.749 51.443,66.083 51.392,81.895 50.315 C 85.311 50.082,92.700 49.562,98.316 49.160 C 107.245 48.520,126.728 47.141,135.474 46.529 C 137.095 46.416,142.400 46.039,147.263 45.691 C 152.126 45.344,162.263 44.628,169.789 44.101 C 177.316 43.574,187.358 42.863,192.105 42.521 C 204.317 41.640,215.002 40.900,221.368 40.495 C 227.790 40.087,227.151 40.396,228.627 36.990 C 232.008 29.188,235.818 24.416,240.218 22.472 C 240.860 22.189,241.546 21.710,241.745 21.407 C 242.022 20.983,242.591 20.703,244.230 20.184 C 246.706 19.399,246.751 19.335,246.107 17.479 C 244.867 13.902,245.093 13.720,254.913 10.426 C 263.335 7.601,263.500 7.563,264.398 8.227 L 264.989 8.664 269.073 7.255 C 271.320 6.479,273.774 5.625,274.526 5.355 C 276.177 4.764,275.950 4.800,276.418 5.051 M270.305 8.642 C 269.598 9.349,270.350 11.158,271.351 11.158 C 272.759 11.158,273.179 9.761,272.157 8.474 C 271.834 8.067,270.785 8.162,270.305 8.642 M272.410 14.958 C 271.703 15.665,272.455 17.474,273.456 17.474 C 274.864 17.474,275.284 16.077,274.263 14.789 C 273.940 14.383,272.890 14.478,272.410 14.958 M234.656 40.946 C 237.648 42.437,239.488 46.006,238.959 49.291 C 238.752 50.580,234.261 61.886,233.200 63.789 C 231.134 67.499,226.440 70.302,222.277 70.313 C 218.589 70.322,219.325 69.201,223.923 67.805 C 227.296 66.782,229.821 64.755,231.241 61.930 C 232.028 60.366,235.922 50.753,236.311 49.416 C 237.132 46.590,235.534 43.760,232.285 42.287 C 230.821 41.623,230.631 41.238,231.526 40.752 C 232.383 40.287,233.469 40.355,234.656 40.946 M225.071 42.125 C 223.544 42.735,217.820 43.241,195.474 44.740 C 191.074 45.035,183.732 45.554,179.158 45.894 C 174.584 46.233,163.216 47.038,153.895 47.682 C 144.574 48.326,134.579 49.036,131.684 49.260 C 128.789 49.484,122.916 49.910,118.632 50.206 C 98.224 51.616,89.574 52.227,87.158 52.428 C 85.711 52.548,80.737 52.921,76.105 53.256 C 66.588 53.944,66.288 54.005,64.524 55.618 C 61.697 58.201,61.578 59.236,62.943 69.263 C 63.534 73.605,64.585 81.421,65.278 86.632 C 65.972 91.842,66.816 98.095,67.154 100.526 C 67.493 102.958,68.110 107.455,68.527 110.519 C 69.743 119.471,70.631 120.499,77.779 121.216 C 82.027 121.643,82.767 121.459,83.973 119.679 L 84.683 118.632 84.566 115.195 C 84.410 110.622,84.509 110.765,81.530 110.809 C 76.837 110.878,73.706 107.939,73.937 103.684 C 74.142 99.929,76.000 98.463,80.696 98.352 C 83.457 98.287,83.610 98.261,83.768 97.826 C 83.997 97.196,83.610 85.504,83.336 84.800 L 83.115 84.231 80.031 84.273 C 73.703 84.360,70.279 80.215,72.464 75.110 C 73.540 72.595,75.251 71.752,79.531 71.627 C 83.348 71.516,83.074 71.757,83.197 68.413 C 83.368 63.782,85.855 60.529,90.022 59.486 C 91.566 59.099,100.304 58.444,101.959 58.591 C 106.420 58.986,108.465 62.218,108.034 68.190 C 107.903 69.996,107.653 73.842,107.477 76.737 C 107.301 79.632,107.064 83.516,106.950 85.368 C 106.836 87.221,106.643 90.774,106.522 93.263 C 106.401 95.753,106.210 99.021,106.098 100.526 C 105.985 102.032,105.793 105.484,105.671 108.199 C 105.548 110.914,105.410 113.196,105.364 113.271 C 105.067 113.751,105.236 120.800,105.563 121.579 C 106.599 124.044,112.018 125.656,116.982 124.975 C 120.449 124.500,122.316 120.440,122.316 113.373 C 122.316 112.153,122.653 112.232,116.921 112.115 C 108.739 111.949,106.547 111.469,107.880 110.134 C 108.236 109.779,115.241 109.638,120.373 109.883 C 121.892 109.955,122.393 109.908,122.630 109.670 C 123.172 109.129,124.024 102.372,123.628 101.761 C 123.521 101.596,121.424 101.493,116.737 101.423 C 109.446 101.315,108.378 101.171,108.250 100.277 C 108.096 99.190,110.369 98.938,118.316 99.163 C 121.268 99.246,123.802 99.269,123.945 99.214 C 124.329 99.068,124.541 98.042,125.149 93.368 C 125.451 91.053,125.851 88.136,126.037 86.887 C 126.513 83.703,126.417 83.522,124.372 83.735 C 121.616 84.023,110.275 83.932,109.724 83.617 C 109.079 83.250,109.192 82.509,109.947 82.149 C 110.844 81.720,114.736 81.481,120.887 81.477 C 127.488 81.473,126.763 81.857,127.264 78.097 C 128.017 72.434,127.999 72.341,126.174 72.661 C 122.301 73.342,110.113 73.084,109.819 72.316 C 109.331 71.046,111.087 70.755,120.105 70.613 C 124.042 70.551,127.466 70.460,127.714 70.410 C 128.305 70.291,128.362 70.111,128.855 66.755 C 129.546 62.054,130.021 60.887,132.086 58.823 C 134.555 56.353,135.969 55.931,143.351 55.459 C 150.191 55.021,151.499 55.319,153.343 57.737 C 155.085 60.022,154.802 62.465,150.333 83.684 C 149.992 85.305,149.140 89.568,148.440 93.158 C 147.740 96.747,146.878 101.058,146.525 102.737 C 146.171 104.416,145.560 107.495,145.167 109.579 C 144.773 111.663,144.011 115.595,143.473 118.316 C 141.836 126.595,142.428 127.657,148.998 128.221 C 154.529 128.696,157.002 127.498,158.097 123.813 C 158.583 122.178,159.783 117.792,160.325 115.669 C 160.916 113.355,161.147 113.475,156.059 113.468 C 149.169 113.460,146.737 113.127,146.737 112.192 C 146.737 111.213,147.745 111.091,154.793 111.217 L 161.271 111.333 161.554 110.772 C 162.066 109.758,163.613 103.674,163.543 102.953 L 163.474 102.247 158.072 102.296 C 150.464 102.365,148.535 102.097,148.946 101.027 C 149.272 100.178,149.917 100.105,157.158 100.105 C 160.979 100.105,164.221 100.030,164.362 99.939 C 164.665 99.743,164.914 98.924,167.160 90.748 C 169.092 83.715,169.169 83.018,168.000 83.112 C 165.435 83.321,153.716 83.375,153.211 83.180 C 152.424 82.878,152.450 82.210,153.264 81.789 C 154.329 81.238,156.679 81.066,163.206 81.059 C 170.637 81.051,169.684 81.591,171.021 76.632 C 172.587 70.818,172.701 71.209,169.548 71.567 C 165.816 71.991,155.473 71.980,155.041 71.551 C 153.592 70.110,156.436 69.585,166.842 69.374 C 173.777 69.234,172.919 69.702,174.100 65.411 C 177.052 54.684,178.930 53.077,189.414 52.305 C 196.182 51.807,197.010 51.933,198.897 53.753 C 201.493 56.258,201.359 57.111,195.674 74.211 C 194.712 77.105,192.444 84.021,190.634 89.579 C 188.824 95.137,187.016 100.679,186.617 101.895 C 186.217 103.111,185.366 105.716,184.725 107.684 C 184.084 109.653,182.407 114.768,180.998 119.053 C 177.214 130.561,177.352 131.065,184.421 131.571 C 191.945 132.110,192.928 131.149,197.496 118.791 C 198.063 117.257,198.526 115.714,198.526 115.362 L 198.526 114.721 195.842 114.855 C 190.725 115.111,184.632 114.537,184.632 113.800 C 184.632 112.639,187.380 112.294,194.082 112.614 C 198.265 112.814,199.281 112.809,199.501 112.588 C 199.903 112.184,202.526 104.494,202.526 103.719 L 202.526 103.053 196.053 103.051 C 189.261 103.049,188.314 102.938,188.458 102.157 C 188.653 101.102,189.727 100.947,196.877 100.947 C 200.543 100.947,203.610 100.881,203.692 100.799 C 203.773 100.718,204.543 98.729,205.402 96.378 C 206.261 94.028,207.678 90.194,208.550 87.858 C 210.191 83.466,210.399 82.376,209.579 82.468 C 209.347 82.494,208.353 82.612,207.368 82.730 C 202.596 83.301,194.838 82.934,194.990 82.145 C 195.211 81.000,197.596 80.647,205.178 80.638 C 212.014 80.630,211.075 81.213,213.168 75.678 C 215.436 69.680,215.540 70.035,211.646 70.500 C 209.305 70.779,200.084 70.906,199.421 70.668 C 198.621 70.381,198.828 69.713,199.859 69.257 C 201.144 68.689,203.686 68.455,210.105 68.316 C 216.819 68.171,215.819 68.887,218.323 62.423 C 219.399 59.644,221.457 54.481,222.896 50.949 C 226.584 41.897,226.687 41.478,225.071 42.125 M266.121 58.024 C 274.833 59.514,280.483 63.554,284.290 71.014 C 285.446 73.280,286.343 76.020,286.405 77.474 C 286.432 78.111,286.565 78.839,286.701 79.091 C 286.836 79.344,286.947 79.738,286.947 79.967 C 286.947 80.411,288.005 82.592,288.150 82.446 C 288.198 82.399,288.129 81.762,287.996 81.032 C 287.692 79.356,287.807 79.255,290.279 79.018 C 309.501 77.171,316.776 84.763,324.304 114.526 C 333.026 149.012,328.602 173.417,312.259 180.978 C 297.735 187.697,286.927 186.408,277.857 176.877 C 270.136 168.764,265.378 151.199,262.850 121.474 C 260.358 92.181,263.813 84.229,280.680 80.428 C 285.288 79.390,285.120 79.588,283.935 76.603 C 280.571 68.133,277.166 64.249,271.001 61.849 C 258.577 57.014,247.307 62.498,239.105 77.368 C 237.557 80.174,236.509 82.649,233.576 90.421 C 229.508 101.201,223.828 115.975,218.512 129.607 C 212.934 143.907,212.946 143.873,213.113 145.872 C 213.430 149.656,214.182 150.720,222.331 158.925 C 229.660 166.304,230.572 167.427,231.796 170.582 C 235.580 180.332,231.019 190.301,220.789 194.637 C 218.737 195.507,218.520 195.871,219.842 196.220 C 224.570 197.466,227.536 204.894,225.594 210.624 C 222.068 221.026,207.751 222.680,201.695 213.385 C 198.149 207.942,199.228 201.407,204.476 196.543 C 206.693 194.488,206.693 194.373,204.476 194.710 C 201.654 195.139,190.912 195.332,161.579 195.481 C 120.731 195.688,98.898 195.900,98.465 196.094 C 97.915 196.339,98.059 196.525,99.579 197.522 C 106.519 202.080,104.800 214.069,96.632 218.077 C 82.536 224.993,69.810 206.228,81.874 196.316 C 83.467 195.007,83.535 194.647,82.158 194.819 C 79.290 195.177,72.487 195.207,71.317 194.867 C 65.735 193.244,65.210 185.668,70.508 183.183 L 71.684 182.632 142.632 182.526 C 220.748 182.410,214.055 182.531,216.134 181.198 C 220.724 178.254,220.344 175.291,214.666 169.749 C 203.717 159.064,199.330 156.134,192.526 154.963 C 190.631 154.637,163.878 152.183,131.579 149.373 C 125.500 148.844,116.784 148.085,112.211 147.686 C 107.637 147.287,97.784 146.434,90.316 145.791 C 76.024 144.560,75.285 144.470,73.840 143.791 C 68.987 141.510,68.792 134.666,73.522 132.631 C 74.999 131.996,73.284 131.888,100.526 134.323 C 105.737 134.788,112.605 135.402,115.789 135.686 C 118.974 135.970,124.516 136.444,128.105 136.737 C 131.695 137.031,136.526 137.456,138.842 137.682 C 141.158 137.907,145.895 138.336,149.368 138.634 C 170.045 140.413,175.422 140.885,180.632 141.378 C 191.306 142.389,195.092 141.714,199.798 137.962 C 202.938 135.459,204.234 133.368,207.184 126.050 C 210.324 118.261,210.002 116.227,205.488 115.313 C 203.403 114.892,203.224 113.966,205.128 113.453 C 208.832 112.456,212.461 116.474,211.775 120.813 C 211.627 121.753,209.057 128.596,207.534 132.105 C 204.438 139.242,197.601 143.932,189.684 144.352 C 188.143 144.434,185.593 144.301,181.263 143.914 C 177.847 143.609,174.011 143.268,172.737 143.157 C 168.550 142.790,144.017 140.650,125.684 139.051 C 104.946 137.242,101.869 136.973,87.208 135.685 C 81.272 135.164,76.062 134.737,75.629 134.738 C 72.821 134.740,71.519 138.597,73.647 140.604 C 74.998 141.878,76.255 142.069,91.789 143.364 C 94.555 143.594,107.548 144.731,119.474 145.786 C 122.716 146.073,127.121 146.454,129.263 146.633 C 136.200 147.214,165.802 149.861,181.158 151.275 C 195.773 152.620,198.541 153.277,203.536 156.579 C 206.230 158.361,218.188 169.353,219.879 171.602 C 223.258 176.098,221.955 181.241,216.794 183.775 C 214.020 185.138,219.393 185.045,143.010 185.049 C 91.960 185.052,73.198 185.116,72.379 185.292 C 69.040 186.007,68.179 190.087,70.976 191.939 L 71.863 192.526 80.721 192.672 C 85.593 192.752,90.831 192.924,92.361 193.054 C 95.035 193.283,107.751 193.240,185.173 192.743 C 195.193 192.679,205.155 192.725,209.298 192.855 C 217.251 193.105,217.833 193.046,220.770 191.689 C 229.990 187.429,233.283 176.729,227.925 168.445 C 227.322 167.513,224.823 164.860,220.370 160.421 C 211.615 151.696,210.674 150.198,210.650 144.947 L 210.639 142.421 211.817 139.474 C 213.769 134.591,221.578 114.590,223.817 108.737 C 224.969 105.726,226.188 102.553,226.527 101.684 C 226.865 100.816,228.429 96.695,230.001 92.526 C 233.995 81.937,234.426 80.867,235.892 77.895 C 241.550 66.427,249.570 59.383,258.737 57.831 C 260.085 57.602,264.303 57.713,266.121 58.024 M79.368 73.983 C 76.636 74.231,76.197 74.366,75.446 75.191 C 73.599 77.219,74.127 80.109,76.569 81.330 C 77.935 82.014,82.512 82.300,83.074 81.738 C 83.989 80.823,83.228 73.585,82.231 73.714 C 82.104 73.730,80.816 73.851,79.368 73.983 M219.897 81.145 C 222.819 82.366,224.643 86.523,223.692 89.796 C 220.910 99.363,217.063 103.414,210.737 103.438 C 206.787 103.453,206.683 102.085,210.581 101.383 C 215.636 100.473,217.480 98.740,219.923 92.606 C 222.465 86.221,221.497 83.347,216.567 82.642 C 215.481 82.486,215.143 82.105,215.601 81.553 C 216.218 80.809,218.560 80.587,219.897 81.145 M291.789 92.118 C 291.789 92.183,292.114 92.661,292.511 93.181 C 294.595 95.910,296.178 103.481,295.312 106.579 C 295.093 107.363,295.793 107.383,296.400 106.610 C 297.190 105.606,297.170 104.853,296.252 101.194 C 295.782 99.322,295.333 97.174,295.254 96.421 C 295.027 94.246,294.344 92.989,293.010 92.296 C 292.435 91.996,291.789 91.902,291.789 92.118 M287.945 94.175 C 287.701 94.779,287.745 95.286,288.018 95.014 C 288.143 94.888,288.214 94.561,288.174 94.287 C 288.110 93.849,288.083 93.836,287.945 94.175 M78.421 100.948 C 75.681 101.919,75.515 105.563,78.122 107.486 C 79.408 108.435,83.223 108.957,83.903 108.277 C 84.331 107.849,84.247 101.907,83.801 101.074 C 83.506 100.523,79.861 100.438,78.421 100.948 M89.368 195.992 C 78.631 197.266,75.858 210.727,85.310 215.694 C 93.977 220.249,104.065 211.923,100.867 202.856 C 100.061 200.572,97.377 197.031,95.847 196.235 C 95.238 195.917,91.256 195.768,89.368 195.992 M212.105 196.009 C 201.564 197.395,198.499 211.505,207.789 215.876 C 216.887 220.157,226.559 211.422,222.844 202.280 C 222.175 200.634,221.243 199.399,219.175 197.421 L 217.468 195.789 215.418 195.816 C 214.291 195.831,212.800 195.918,212.105 196.009 " stroke="none" fill="#b31313" fill-rule="evenodd"></path></g></svg>